<svg width="40" height="40" viewBox="0 0 40 40" fill="none" xmlns="http://www.w3.org/2000/svg">
<g id="vuesax/bulk/colorfilter">
<g id="vuesax/bulk/colorfilter_2">
<g id="colorfilter">
<path id="Vector" opacity="0.6" d="M23.3333 26.6666C23.3333 29.6166 22.0499 32.2833 19.9999 34.0999C18.2333 35.6999 15.8999 36.6666 13.3333 36.6666C7.81659 36.6666 3.33325 32.1833 3.33325 26.6666C3.33325 22.0666 6.46659 18.1666 10.6999 17.0166C11.8499 19.9166 14.3166 22.1499 17.3666 22.9833C18.1999 23.2166 19.0833 23.3333 19.9999 23.3333C20.9166 23.3333 21.7999 23.2166 22.6333 22.9833C23.0833 24.1166 23.3333 25.3666 23.3333 26.6666Z" fill="white"/>
<path id="Vector_2" d="M30 13.3335C30 14.6335 29.75 15.8835 29.3 17.0168C28.15 19.9168 25.6833 22.1502 22.6333 22.9835C21.8 23.2168 20.9167 23.3335 20 23.3335C19.0833 23.3335 18.2 23.2168 17.3667 22.9835C14.3167 22.1502 11.85 19.9168 10.7 17.0168C10.25 15.8835 10 14.6335 10 13.3335C10 7.81683 14.4833 3.3335 20 3.3335C25.5167 3.3335 30 7.81683 30 13.3335Z" fill="white"/>
<path id="Vector_3" opacity="0.4" d="M36.6667 26.6666C36.6667 32.1833 32.1833 36.6666 26.6667 36.6666C24.1 36.6666 21.7667 35.6999 20 34.0999C22.05 32.2833 23.3333 29.6166 23.3333 26.6666C23.3333 25.3666 23.0833 24.1166 22.6333 22.9833C25.6833 22.1499 28.15 19.9166 29.3 17.0166C33.5333 18.1666 36.6667 22.0666 36.6667 26.6666Z" fill="white"/>
</g>
</g>
</g>
</svg>
