<svg width="183" height="122" viewBox="0 0 183 122" fill="none" xmlns="http://www.w3.org/2000/svg">
<path d="M16.7452 52.8077C16.7452 52.8077 14.719 52.6611 14.9056 57.2329C15.0922 61.8047 15.556 64.2398 15.556 64.2398C15.556 64.2398 15.4966 65.2537 14.7159 65.0546C13.9352 64.8557 12.467 63.8692 11.7416 64.6066C10.9896 65.3713 11.2569 66.5444 12.2545 67.9262C13.2521 69.308 15.3275 72.4158 15.514 72.6976C15.6972 72.9743 15.7707 73.4928 15.2173 73.443C14.664 73.3933 10.9292 72.1201 10.4345 73.9386C9.93987 75.7574 13.3481 79.1473 13.7137 79.525C14.0793 79.9027 14.099 80.1413 13.9507 80.3697C13.8025 80.5983 12.5871 80.0513 11.5102 79.7331C10.4331 79.4147 9.12887 79.2356 8.93091 80.3089C8.73295 81.3823 10.2341 84.5233 15.8559 87.8244L18.5603 89.1825L21.1202 87.5404C26.3853 83.6901 27.5665 80.4139 27.263 79.3659C26.9593 78.3179 25.6794 78.6275 24.6396 79.0526C23.5996 79.4776 22.4448 80.1442 22.2745 79.9317C22.1042 79.7192 22.1001 79.4798 22.4261 79.0672C22.7522 78.6546 25.8062 74.9387 25.1333 73.179C24.4603 71.4193 20.8708 73.0619 20.3252 73.1671C19.7796 73.2722 19.8012 72.7488 19.956 72.4553C20.1137 72.1562 21.8696 68.8551 22.7248 67.3799C23.5799 65.9046 23.7294 64.7108 22.905 64.0254C22.11 63.3646 20.7471 64.4938 19.9902 64.7703C19.2333 65.0467 19.0732 64.0442 19.0732 64.0442C19.0732 64.0442 19.2925 61.5746 19.0235 57.0069C18.7544 52.4393 16.7042 52.8079 16.7042 52.8079" fill="#EBEBEB"/>
<path d="M16.9051 56.9023C16.9051 56.9023 16.9104 56.9345 16.916 56.9977C16.9211 57.0653 16.9283 57.1585 16.9376 57.2783C16.9545 57.5301 16.979 57.8929 17.0103 58.358C17.0724 59.2957 17.1523 60.653 17.2442 62.3308C17.4295 65.686 17.6462 70.3232 17.8686 75.445C18.0911 80.5688 18.2963 85.2065 18.463 88.5625C18.5477 90.2368 18.6163 91.5935 18.6639 92.5365C18.6869 93.0021 18.7049 93.3651 18.7173 93.617C18.7221 93.737 18.7257 93.8305 18.7287 93.898C18.7306 93.9615 18.7289 93.9939 18.7289 93.9939C18.7289 93.9939 18.7236 93.9617 18.718 93.8985C18.7129 93.8309 18.7056 93.7377 18.6964 93.6179C18.6794 93.3664 18.6549 93.0035 18.6236 92.5385C18.5615 91.601 18.4817 90.2437 18.3897 88.5659C18.2044 85.2107 17.9878 80.573 17.7651 75.4492C17.5426 70.3271 17.3376 65.6902 17.1709 62.3342C17.0863 60.6599 17.0176 59.3032 16.9698 58.3599C16.9468 57.8944 16.9288 57.5311 16.9165 57.2792C16.9116 57.1592 16.908 57.0657 16.9051 56.9979C16.9034 56.935 16.9051 56.9023 16.9051 56.9023Z" fill="#E0E0E0"/>
<path d="M13.7406 66.0698C13.7457 66.0647 13.8054 66.115 13.909 66.2106C14.013 66.3055 14.1591 66.4478 14.3381 66.6252C14.695 66.9807 15.1751 67.485 15.6942 68.0513C16.2022 68.6104 16.6617 69.1159 17.0169 69.5071C17.1748 69.6793 17.309 69.8257 17.4193 69.946C17.5147 70.0495 17.5651 70.109 17.5603 70.1144C17.5554 70.1195 17.4953 70.0697 17.391 69.9748C17.2871 69.8794 17.1408 69.7371 16.9637 69.5578C16.6103 69.1986 16.137 68.6882 15.6178 68.1221C15.1059 67.567 14.6433 67.0651 14.2852 66.6767C14.1263 66.5051 13.9912 66.3592 13.8803 66.2394C13.7855 66.135 13.7355 66.0747 13.7406 66.0698Z" fill="#E0E0E0"/>
<path d="M17.8284 70.0246C17.8081 70.0043 18.7971 68.9627 20.0373 67.698C21.2779 66.4329 22.2998 65.4242 22.3201 65.4445C22.3405 65.4647 21.3517 66.5061 20.111 67.7712C18.8709 69.0357 17.8488 70.0446 17.8284 70.0246Z" fill="#E0E0E0"/>
<path d="M17.8185 77.907C17.8153 77.9006 17.8825 77.8579 18.007 77.7865C18.1513 77.705 18.3279 77.6052 18.5361 77.4878C18.9824 77.2355 19.5977 76.8851 20.2626 76.4737C20.9288 76.0638 21.5193 75.6724 21.9446 75.386C22.143 75.2528 22.3114 75.1398 22.4492 75.0476C22.569 74.9685 22.6372 74.9273 22.6416 74.9331C22.6457 74.939 22.5855 74.9909 22.4729 75.0805C22.3601 75.1698 22.1947 75.2957 21.9865 75.4465C21.571 75.7491 20.9851 76.1517 20.3167 76.5628C19.6496 76.9752 19.0266 77.3168 18.5705 77.5527C18.342 77.6698 18.1559 77.7623 18.0254 77.8223C17.8951 77.8828 17.8216 77.9133 17.8185 77.907Z" fill="#E0E0E0"/>
<path d="M13.3361 75.1483C13.3398 75.1422 13.4062 75.1739 13.5232 75.2367C13.6401 75.2994 13.8077 75.3931 14.0134 75.5107C14.4251 75.7459 14.9904 76.0772 15.6112 76.4486C16.2322 76.8202 16.7917 77.1613 17.1937 77.4129C17.3948 77.5388 17.5566 77.642 17.6672 77.7155C17.7778 77.7889 17.8373 77.8323 17.8336 77.8387C17.83 77.8448 17.7635 77.813 17.6466 77.7503C17.5297 77.6876 17.362 77.5939 17.1563 77.4763C16.7446 77.2411 16.1794 76.9098 15.5583 76.5382C14.9375 76.1668 14.3783 75.8254 13.9761 75.5741C13.775 75.4485 13.6132 75.345 13.5025 75.2715C13.3917 75.1981 13.3322 75.1544 13.3361 75.1483Z" fill="#E0E0E0"/>
<path d="M12.4474 82.106C12.451 82.0997 12.5355 82.1414 12.6854 82.2217C12.852 82.3141 13.0631 82.4313 13.3149 82.5708C13.844 82.8697 14.5716 83.2887 15.3719 83.7569C16.1725 84.2254 16.8942 84.6546 17.4138 84.9696C17.6591 85.1206 17.8646 85.2473 18.0267 85.3473C18.1703 85.4386 18.2479 85.492 18.2443 85.4981C18.2406 85.5044 18.1562 85.4627 18.0063 85.3824C17.8396 85.29 17.6285 85.1728 17.3767 85.0333C16.8476 84.7344 16.1198 84.3154 15.3195 83.8469C14.5192 83.3787 13.7974 82.9495 13.2778 82.6345C13.0325 82.4832 12.8271 82.3566 12.6648 82.2565C12.5214 82.1655 12.4437 82.1121 12.4474 82.106Z" fill="#E0E0E0"/>
<path d="M18.129 85.3778C18.1256 85.3714 18.2095 85.3156 18.3641 85.2194C18.5361 85.114 18.7568 84.9788 19.0215 84.8168C19.5763 84.4767 20.341 84.0046 21.1709 83.46C22.0018 82.9163 22.7415 82.4049 23.2745 82.0316C23.529 81.8537 23.7413 81.7056 23.9065 81.5899C24.0564 81.4865 24.1413 81.4318 24.1454 81.4377C24.1498 81.4433 24.0729 81.5089 23.9302 81.6226C23.7876 81.7363 23.5787 81.8971 23.317 82.0916C22.7942 82.4808 22.0598 83.0029 21.2272 83.5475C20.3958 84.0931 19.6234 84.5562 19.0584 84.8805C18.7755 85.0418 18.5451 85.1701 18.384 85.2548C18.2231 85.34 18.1324 85.3841 18.129 85.3778Z" fill="#E0E0E0"/>
<path d="M22.1931 90.0724H14.7109L17.1529 108.665H19.7509L22.1931 90.0724Z" fill="#E0E0E0"/>
<path d="M15.0981 92.3577C15.0952 92.3596 15.1063 92.384 15.1381 92.4238C15.1699 92.4633 15.2286 92.5148 15.3186 92.5536C15.496 92.6312 15.8075 92.6375 16.1088 92.456C16.4108 92.2884 16.674 91.9592 17.0789 91.8135C17.4804 91.6593 17.978 91.6869 18.4547 91.8411C18.9372 91.9912 19.3562 92.2369 19.7358 92.4655C20.1162 92.6931 20.4648 92.8962 20.7776 93.0277C21.0881 93.1641 21.3586 93.227 21.5459 93.2512C21.6397 93.2636 21.713 93.2675 21.763 93.2661C21.8127 93.2661 21.8387 93.2639 21.8389 93.2597C21.843 93.2351 21.4153 93.239 20.8127 92.9486C20.5107 92.8098 20.1713 92.6019 19.7938 92.3686C19.4183 92.1354 18.9889 91.8789 18.4908 91.724C17.9986 91.5646 17.4693 91.5359 17.0386 91.7081C16.8235 91.7906 16.6427 91.9199 16.4921 92.048C16.3392 92.1751 16.2024 92.2949 16.0639 92.3818C15.7902 92.5597 15.5028 92.567 15.3351 92.5089C15.1629 92.4489 15.1076 92.3474 15.0981 92.3577Z" fill="#F5F5F5"/>
<path d="M15.3718 95.782C15.3818 95.7883 15.431 95.7053 15.5482 95.5824C15.6673 95.463 15.8624 95.3069 16.1457 95.2012C16.4264 95.0929 16.7872 95.0285 17.1862 95.0436C17.587 95.0575 18.0237 95.1461 18.4883 95.222C18.9519 95.3003 19.4111 95.3354 19.8213 95.2776C20.2313 95.2247 20.5877 95.1058 20.8703 94.9765C21.1537 94.8465 21.3633 94.7042 21.5011 94.5993C21.6391 94.4941 21.7049 94.4234 21.701 94.4185C21.6869 94.3982 21.398 94.6583 20.8359 94.897C20.5554 95.0133 20.2063 95.1202 19.808 95.1654C19.4096 95.2151 18.9686 95.1785 18.5077 95.1009C18.047 95.0258 17.6033 94.9389 17.1899 94.9306C16.7758 94.9214 16.4026 94.9972 16.1137 95.121C15.8221 95.2417 15.6251 95.4172 15.5133 95.5506C15.4594 95.6202 15.4201 95.6756 15.4 95.7175C15.3779 95.7578 15.3682 95.78 15.3718 95.782Z" fill="#F5F5F5"/>
<path d="M21.3465 97.6154C21.3494 97.6098 21.28 97.5627 21.1403 97.5078C21.001 97.4524 20.7885 97.3955 20.5202 97.3741C20.2521 97.3526 19.9311 97.3701 19.5828 97.428C19.2339 97.4848 18.8598 97.5817 18.4671 97.6656C18.0745 97.7488 17.6959 97.8047 17.3528 97.7923C17.01 97.7803 16.7051 97.7049 16.4683 97.5997C15.987 97.3872 15.8155 97.0778 15.7973 97.0974C15.7927 97.1 15.8266 97.1776 15.9239 97.2938C16.0202 97.4097 16.1886 97.5575 16.4319 97.6783C16.6748 97.7984 16.9909 97.8862 17.348 97.905C17.7058 97.9245 18.0952 97.8696 18.4923 97.7854C18.8894 97.7005 19.2606 97.601 19.6019 97.539C19.943 97.476 20.2548 97.4504 20.5153 97.4602C21.0403 97.478 21.3389 97.6378 21.3465 97.6154Z" fill="#F5F5F5"/>
<path d="M16.0334 100.194C16.037 100.213 16.3005 100.026 16.7597 100.12C16.9848 100.161 17.2367 100.276 17.5198 100.405C17.8017 100.537 18.1416 100.65 18.5062 100.679C19.2412 100.75 19.895 100.511 20.2961 100.261C20.5015 100.139 20.6447 100.007 20.7415 99.9168C20.8324 99.8194 20.8793 99.7633 20.8732 99.7574C20.8569 99.7394 20.6602 99.9619 20.2526 100.186C19.8521 100.409 19.2209 100.624 18.5168 100.556C17.8085 100.515 17.2648 100.091 16.7735 100.034C16.5341 99.9983 16.334 100.033 16.2093 100.084C16.0831 100.133 16.0297 100.189 16.0334 100.194Z" fill="#F5F5F5"/>
<path d="M16.4492 103.762C16.449 103.777 16.7001 103.775 17.073 103.638C17.449 103.511 17.9145 103.221 18.4582 103.004C18.7309 102.9 19.0045 102.835 19.2532 102.837C19.5021 102.838 19.7243 102.899 19.8924 102.983C20.2362 103.155 20.3357 103.4 20.3546 103.384C20.3599 103.382 20.3449 103.321 20.2835 103.226C20.2231 103.131 20.1086 103.008 19.9329 102.907C19.7578 102.806 19.5225 102.731 19.2546 102.723C18.9863 102.716 18.6972 102.781 18.4145 102.889C17.8512 103.115 17.4005 103.414 17.0412 103.557C16.6867 103.711 16.4463 103.743 16.4492 103.762Z" fill="#F5F5F5"/>
<path d="M16.8165 105.423C16.8124 105.438 16.9916 105.503 17.2903 105.577C17.5884 105.652 18.0071 105.732 18.4744 105.778C18.9421 105.824 19.3679 105.828 19.675 105.813C19.9821 105.798 20.1706 105.77 20.1697 105.754C20.1677 105.717 19.4115 105.75 18.4865 105.656C17.5613 105.567 16.8257 105.387 16.8165 105.423Z" fill="#F5F5F5"/>
<path d="M168.448 13.2211L154.674 8.24622L141.034 13.154C139.293 13.9812 137.766 14.4765 137.766 16.1079V24.2311C137.766 29.8724 139.235 35.4625 142.259 40.3979C144.803 44.551 148.743 48.8271 154.808 51.545C160.383 49.7235 164.545 44.8677 167.089 40.7146C170.113 35.7792 171.582 30.1891 171.582 24.5479V17.2432C171.582 14.9167 170.356 13.7806 168.448 13.2211Z" fill="#F5F5F5"/>
<path d="M154.808 46.8309C150.009 44.6805 146.892 41.225 144.879 37.9393C142.487 34.0346 141.325 29.6118 141.325 25.1486V19.4507C141.325 18.1599 142.099 16.9509 143.636 16.2292L154.677 12.077L154.674 8.24622L141.034 13.154C139.603 13.7831 137.766 14.4765 137.766 16.1079V24.2311C137.766 29.8724 139.235 35.4625 142.259 40.3979C144.803 44.551 148.743 48.8271 154.808 51.545V46.8309Z" fill="#EBEBEB"/>
<path d="M154.808 51.5453C155.774 51.22 156.661 50.8452 157.514 50.3782C159.8 49.1253 161.751 47.4048 163.24 45.8476C164.905 44.1057 166.146 42.2232 167.223 40.465C170.246 35.5296 171.716 29.9395 171.582 24.1426L171.591 17.436C171.582 14.0964 169.879 13.8502 168.448 13.2211L154.674 8.24622L154.676 12.077L165.846 16.296C167.383 17.0178 168.157 18.2268 168.157 19.5176V25.2159C168.157 29.6792 166.994 34.1019 164.602 38.0064C162.589 41.2924 159.606 44.6805 154.808 46.8309V51.5453Z" fill="#E0E0E0"/>
<path d="M158.327 24.7833L158.343 23.687C158.343 21.7038 156.738 20.0902 154.767 20.0902C152.795 20.0902 151.19 21.7038 151.19 23.6814L151.175 24.7982C150.21 24.9419 149.469 25.7762 149.469 26.7866V33.253C149.469 34.3645 150.365 35.2658 151.47 35.2658H158.145C159.25 35.2658 160.146 34.3647 160.146 33.253V26.7866C160.146 25.7371 159.347 24.8763 158.327 24.7833ZM155.72 31.6436H153.975L154.247 30.3756C153.945 30.1867 153.743 29.8507 153.743 29.4667C153.743 28.8754 154.219 28.3962 154.807 28.3962C155.395 28.3962 155.872 28.8757 155.872 29.4667C155.872 29.837 155.685 30.1633 155.401 30.3555C155.524 30.8472 155.72 31.6436 155.72 31.6436ZM157.557 24.774H151.946L151.961 23.687C151.961 22.131 153.22 20.8652 154.767 20.8652C156.314 20.8652 157.572 22.131 157.572 23.6814L157.557 24.774Z" fill="#E0E0E0"/>
<path d="M143.555 24.7043C143.525 24.7086 143.43 24.2812 143.349 23.5792C143.266 22.8777 143.205 21.9002 143.237 20.8212C143.252 20.2817 143.288 19.7684 143.337 19.3036C143.381 18.839 143.466 18.4034 143.645 18.0777C143.82 17.75 144.064 17.5548 144.248 17.4679C144.435 17.3806 144.551 17.3847 144.553 17.3979C144.576 17.4284 144.087 17.525 143.797 18.1546C143.653 18.4591 143.59 18.8636 143.558 19.3238C143.522 19.7855 143.493 20.2939 143.478 20.8281C143.447 21.8961 143.48 22.864 143.519 23.5645C143.555 24.2653 143.591 24.6996 143.555 24.7043Z" fill="white"/>
<path d="M143.759 28.2403C143.693 28.2418 143.632 27.9077 143.624 27.4949C143.616 27.0818 143.663 26.7458 143.73 26.7446C143.796 26.7434 143.857 27.0769 143.865 27.4903C143.873 27.9031 143.826 28.2391 143.759 28.2403Z" fill="white"/>
<path d="M174.619 108.681C174.619 108.716 137.588 108.744 91.9188 108.744C46.2338 108.744 9.21094 108.716 9.21094 108.681C9.21094 108.646 46.2338 108.618 91.9188 108.618C137.588 108.617 174.619 108.646 174.619 108.681Z" fill="#263238"/>
<path d="M145.103 15.1414H39.8329C38.018 15.1414 36.5469 16.621 36.5469 18.4462V93.2305C36.5469 95.0558 38.018 96.5357 39.8329 96.5357H80.2353C80.2353 96.5357 82.8054 104.529 74.8382 108.665H112.617C112.617 108.665 103.621 105.563 105.934 96.5357H145.103C146.918 96.5357 148.389 95.0558 148.389 93.2307V18.4464C148.389 16.621 146.918 15.1414 145.103 15.1414Z" fill="#455A64"/>
<path d="M93.8742 88.6706C95.3062 90.729 93.0651 92.9833 91.0178 91.5432C90.9504 91.4954 90.889 91.4339 90.8419 91.3658C89.4137 89.3079 91.6522 87.0565 93.698 88.4935C93.7655 88.541 93.8268 88.6025 93.8742 88.6706Z" fill="#263238"/>
<path d="M146.576 82.8543H38.3594V18.8775C38.3594 17.5707 39.4127 16.5115 40.7118 16.5115H144.223C145.523 16.5115 146.576 17.5709 146.576 18.8775V82.8543H146.576Z" fill="white"/>
<path d="M146.576 22.0242H38.3594V18.7451C38.3594 17.5116 39.3535 16.5115 40.5801 16.5115H144.753C145.76 16.5115 146.576 17.3325 146.576 18.3454L146.576 22.0242Z" fill="#EBEBEB"/>
<path d="M41.8052 20.148C42.2251 20.148 42.5655 19.8057 42.5655 19.3833C42.5655 18.961 42.2251 18.6187 41.8052 18.6187C41.3853 18.6187 41.0449 18.961 41.0449 19.3833C41.0449 19.8057 41.3853 20.148 41.8052 20.148Z" fill="#E0E0E0"/>
<path d="M44.0726 20.1478C44.4923 20.1478 44.8326 19.8055 44.8326 19.3833C44.8326 18.9612 44.4923 18.6189 44.0726 18.6189C43.6528 18.6189 43.3125 18.9612 43.3125 19.3833C43.3125 19.8055 43.6528 20.1478 44.0726 20.1478Z" fill="#E0E0E0"/>
<path d="M46.2269 20.1478C46.6466 20.1478 46.9869 19.8055 46.9869 19.3833C46.9869 18.9612 46.6466 18.6189 46.2269 18.6189C45.8071 18.6189 45.4668 18.9612 45.4668 19.3833C45.4668 19.8055 45.8071 20.1478 46.2269 20.1478Z" fill="#E0E0E0"/>
<path d="M126.283 96.5462C126.283 96.5813 111.303 96.6096 92.8287 96.6096C74.3479 96.6096 59.3711 96.5813 59.3711 96.5462C59.3711 96.511 74.3479 96.4827 92.8287 96.4827C111.303 96.4827 126.283 96.511 126.283 96.5462Z" fill="#263238"/>
<path d="M109.182 31.3598L92.6817 25.2469L76.3415 31.2776C74.2557 32.2941 72.4258 32.9027 72.4258 34.9074V44.8889C72.4258 51.8207 74.1863 58.6898 77.8085 64.7542C80.8565 69.8574 85.5763 75.1117 92.8421 78.4516C99.5213 76.2134 104.507 70.2466 107.555 65.1436C111.177 59.0792 112.937 52.2104 112.937 45.2783V36.3023C112.937 33.4434 111.469 32.0474 109.182 31.3598Z" fill="#4AC49E"/>
<g opacity="0.8">
<path d="M109.182 31.3598L92.6817 25.2469L76.3415 31.2776C74.2557 32.2941 72.4258 32.9027 72.4258 34.9074V44.8889C72.4258 51.8207 74.1863 58.6898 77.8085 64.7542C80.8565 69.8574 85.5763 75.1117 92.8421 78.4516C99.5213 76.2134 104.507 70.2466 107.555 65.1436C111.177 59.0792 112.937 52.2104 112.937 45.2783V36.3023C112.937 33.4434 111.469 32.0474 109.182 31.3598Z" fill="white"/>
</g>
<path d="M102.76 56.628H99.7278V40.0302C99.7278 36.1235 96.5677 32.9451 92.6835 32.9451C88.7992 32.9451 85.6392 36.1235 85.6392 40.0302V56.628H82.6074V40.0302C82.6074 34.4421 87.1277 29.8956 92.6837 29.8956C98.2397 29.8956 102.76 34.4421 102.76 40.0302V56.628H102.76Z" fill="#4AC49E"/>
<g opacity="0.4">
<path d="M102.76 56.628H99.7278V40.0302C99.7278 36.1235 96.5677 32.9451 92.6835 32.9451C88.7992 32.9451 85.6392 36.1235 85.6392 40.0302V56.628H82.6074V40.0302C82.6074 34.4421 87.1277 29.8956 92.6837 29.8956C98.2397 29.8956 102.76 34.4421 102.76 40.0302V56.628H102.76Z" fill="black"/>
</g>
<path d="M104.852 66.7694H80.5133C79.7348 66.7694 79.1035 66.1345 79.1035 65.3515V50.6627C79.1035 49.8797 79.7348 49.2448 80.5133 49.2448H104.852C105.631 49.2448 106.262 49.8797 106.262 50.6627V65.3515C106.262 66.1347 105.631 66.7694 104.852 66.7694Z" fill="#4AC49E"/>
<g opacity="0.5">
<path d="M94.9521 55.724C94.9521 54.463 93.9358 53.4409 92.6821 53.4409C91.4283 53.4409 90.4121 54.463 90.4121 55.724C90.4121 56.7676 91.1122 57.6377 92.063 57.9102V61.3238H93.3014V57.9102C94.2517 57.6377 94.9521 56.7676 94.9521 55.724Z" fill="black"/>
</g>
<path d="M80.5523 65.1075C80.4899 65.1075 80.4395 62.1849 80.4395 58.5805C80.4395 54.9749 80.4899 52.053 80.5523 52.053C80.6146 52.053 80.6651 54.9749 80.6651 58.5805C80.6651 62.1851 80.6146 65.1075 80.5523 65.1075Z" fill="#FAFAFA"/>
<path d="M90.9061 58.6508C90.8988 58.662 90.7996 58.6151 90.6399 58.4988C90.4798 58.3833 90.2668 58.1862 90.0548 57.899C89.6314 57.3405 89.2443 56.3262 89.4956 55.2309C89.7593 54.138 90.5577 53.406 91.185 53.0978C91.5026 52.9368 91.7806 52.8565 91.9754 52.8258C92.17 52.794 92.2794 52.7967 92.2811 52.8101C92.2906 52.8531 91.8505 52.8946 91.2617 53.2386C90.6821 53.5678 89.958 54.2739 89.7151 55.2833C89.4823 56.2947 89.8149 57.2524 90.186 57.808C90.5587 58.3812 90.9335 58.6166 90.9061 58.6508Z" fill="#FAFAFA"/>
<path d="M113.081 74.5806C113.081 74.5806 113.146 74.4891 113.277 74.3151C113.31 74.2714 113.347 74.2229 113.388 74.1689C113.425 74.1126 113.458 74.046 113.499 73.9762C113.578 73.8356 113.677 73.6761 113.748 73.4745C113.787 73.3757 113.833 73.2727 113.873 73.161C113.904 73.0463 113.937 72.9258 113.972 72.7991C114.012 72.674 114.034 72.538 114.055 72.396C114.073 72.2538 114.112 72.1081 114.116 71.9522C114.183 71.3327 114.142 70.6097 114.019 69.8118C113.773 68.2109 113.098 66.3256 112.065 64.2764C111.033 62.2229 109.613 60.0143 107.867 57.7119C106.122 55.4088 104.023 53.03 101.609 50.6415C99.1936 48.2559 96.4586 45.8591 93.3931 43.5879C91.8594 42.4543 90.2415 41.3546 88.5361 40.3188C86.8323 39.2806 85.0359 38.3129 83.1414 37.4738C81.2467 36.6454 79.2475 35.9234 77.1388 35.5813C76.0881 35.4183 75.004 35.3397 73.938 35.502C73.4062 35.5842 72.8837 35.7301 72.3917 35.9524C71.9075 36.1901 71.462 36.5068 71.094 36.907C70.7403 37.3203 70.4766 37.8007 70.2964 38.3117C70.1333 38.8289 70.0465 39.3675 70.0264 39.9084C69.9858 40.9925 70.1872 42.0671 70.4674 43.0989C71.0448 45.1678 71.9856 47.084 73.0198 48.8835C74.0641 50.6815 75.2247 52.367 76.4445 53.9516C77.6619 55.5383 78.9326 57.0299 80.2271 58.4336C82.82 61.2389 85.4988 63.6991 88.1305 65.8417C90.7648 67.9813 93.3533 69.8082 95.8271 71.2907C98.2999 72.7725 100.643 73.9403 102.789 74.7375C104.931 75.5368 106.869 75.9965 108.479 76.0599C109.281 76.0922 109.999 76.0504 110.603 75.9138C110.757 75.8916 110.897 75.8364 111.035 75.802C111.173 75.7647 111.304 75.7279 111.423 75.6732C111.545 75.6242 111.66 75.5776 111.77 75.5329C111.876 75.4807 111.972 75.4229 112.065 75.3728C112.256 75.2791 112.402 75.1618 112.532 75.0666C112.596 75.0181 112.658 74.9771 112.71 74.9334C112.758 74.8865 112.802 74.8443 112.841 74.8063C112.998 74.656 113.081 74.5806 113.081 74.5806C113.081 74.5806 113.004 74.6618 112.85 74.8163C112.811 74.8551 112.767 74.8983 112.72 74.9461C112.669 74.9907 112.607 75.0327 112.543 75.0825C112.414 75.1798 112.268 75.2994 112.077 75.3955C111.984 75.4468 111.888 75.5061 111.781 75.5595C111.671 75.6051 111.556 75.6532 111.434 75.7035C111.315 75.7593 111.183 75.7974 111.044 75.836C110.906 75.8716 110.765 75.9279 110.611 75.9514C110.004 76.0929 109.282 76.1388 108.476 76.1102C106.859 76.0541 104.913 75.5998 102.764 74.805C100.611 74.0125 98.2604 72.8482 95.7805 71.369C93.3 69.8892 90.7047 68.0641 88.064 65.9249C85.426 63.7831 82.7407 61.3221 80.1412 58.5146C78.8436 57.1097 77.5694 55.6161 76.3484 54.027C75.1253 52.4398 73.961 50.7508 72.9123 48.9474C71.8742 47.142 70.9286 45.2191 70.3459 43.1341C70.0632 42.0937 69.859 41.0084 69.8997 39.905C69.9203 39.3543 70.0086 38.8038 70.1763 38.2724C70.3614 37.747 70.6336 37.2508 70.9994 36.8238C71.3798 36.4097 71.84 36.0827 72.3378 35.8387C72.8434 35.6103 73.3776 35.4617 73.9188 35.3778C75.004 35.2129 76.0988 35.2934 77.1582 35.4576C79.2834 35.8031 81.2899 36.529 83.1909 37.3608C85.0912 38.2033 86.8917 39.1744 88.5982 40.2158C90.3066 41.2548 91.9264 42.3579 93.4618 43.4945C96.5304 45.7722 99.2664 48.1751 101.682 50.5673C104.096 52.9624 106.194 55.348 107.938 57.6582C109.681 59.9676 111.099 62.1839 112.127 64.2452C113.157 66.3021 113.827 68.1956 114.067 69.805C114.187 70.607 114.224 71.3339 114.153 71.9566C114.148 72.1132 114.108 72.2599 114.089 72.4029C114.067 72.5456 114.044 72.682 114.003 72.8077C113.967 72.9345 113.932 73.0558 113.9 73.1707C113.859 73.283 113.812 73.3862 113.772 73.4853C113.699 73.687 113.597 73.8466 113.516 73.9867C113.474 74.0562 113.439 74.1226 113.401 74.1785C113.359 74.2319 113.322 74.28 113.288 74.3231C113.152 74.4949 113.081 74.5806 113.081 74.5806Z" fill="#4AC49E"/>
<path d="M120.848 55.7264C120.848 55.7264 120.836 55.6147 120.819 55.397C120.814 55.3424 120.81 55.2814 120.804 55.214C120.795 55.1469 120.776 55.0747 120.76 54.9956C120.726 54.8375 120.695 54.6521 120.614 54.4545C120.578 54.3547 120.544 54.2468 120.499 54.137C120.447 54.0304 120.392 53.9181 120.334 53.8005C120.281 53.68 120.207 53.5646 120.129 53.4443C120.049 53.326 119.981 53.1913 119.881 53.0719C119.52 52.5652 119.012 52.053 118.392 51.5399C117.149 50.51 115.397 49.5547 113.27 48.7175C111.141 47.8757 108.619 47.1784 105.793 46.6286C102.966 46.0789 99.8251 45.709 96.4433 45.5424C93.0617 45.3794 89.4344 45.4218 85.6436 45.7793C83.7489 45.9603 81.8137 46.2226 79.8554 46.5916C77.8969 46.9576 75.9156 47.438 73.9467 48.0804C71.9843 48.7307 70.0147 49.5305 68.2149 50.6871C67.3228 51.269 66.4618 51.9361 65.7738 52.7709C65.4315 53.1883 65.138 53.6468 64.918 54.1424C64.7139 54.6438 64.5912 55.1784 64.5812 55.7235C64.5907 56.2686 64.712 56.8037 64.9155 57.3058C65.1363 57.8012 65.4279 58.2611 65.7707 58.6783C66.4577 59.5143 67.3194 60.1816 68.2115 60.7641C70.0115 61.9213 71.9819 62.7214 73.9445 63.3719C75.9139 64.0144 77.8957 64.4953 79.8545 64.8613C81.8129 65.2302 83.7484 65.4928 85.6436 65.6736C89.4351 66.031 93.0627 66.0735 96.4445 65.9105C99.8266 65.7436 102.967 65.3737 105.794 64.824C108.62 64.2742 111.142 63.5769 113.271 62.7351C115.398 61.8977 117.149 60.9427 118.392 59.9127C119.012 59.3998 119.521 58.8874 119.881 58.3809C119.981 58.2616 120.049 58.1269 120.129 58.0086C120.207 57.8883 120.281 57.7729 120.334 57.6523C120.392 57.5347 120.447 57.4225 120.499 57.3161C120.544 57.2063 120.577 57.0984 120.614 56.9986C120.694 56.8008 120.726 56.6156 120.76 56.4574C120.775 56.3784 120.795 56.3062 120.804 56.2391C120.809 56.1717 120.814 56.1107 120.818 56.0561C120.836 55.8382 120.848 55.7264 120.848 55.7264C120.848 55.7264 120.844 55.8382 120.831 56.0568C120.828 56.1117 120.824 56.1729 120.82 56.2408C120.812 56.3081 120.794 56.3808 120.779 56.4606C120.747 56.6197 120.717 56.8069 120.638 57.0062C120.603 57.107 120.57 57.2158 120.526 57.3266C120.474 57.4342 120.419 57.5474 120.362 57.6662C120.31 57.788 120.236 57.9049 120.159 58.0261C120.079 58.1457 120.011 58.2818 119.912 58.4024C119.552 58.9145 119.044 59.4321 118.424 59.9503C117.18 60.9907 115.427 61.955 113.297 62.8007C111.166 63.6508 108.641 64.3555 105.812 64.9118C102.981 65.4681 99.8365 65.8436 96.4501 66.0154C93.0637 66.1833 89.4312 66.1447 85.6331 65.79C83.7348 65.6104 81.7957 65.3488 79.8326 64.9804C77.8695 64.6149 75.8826 64.1339 73.9064 63.4903C71.9368 62.838 69.9586 62.0363 68.1438 60.8702C67.2445 60.2831 66.3735 59.6099 65.6739 58.7591C65.3248 58.3345 65.0261 57.8644 64.7996 57.3556C64.59 56.8396 64.4645 56.2869 64.4551 55.7233C64.4648 55.1596 64.5919 54.6074 64.802 54.0921C65.0281 53.5831 65.3284 53.1147 65.6768 52.6898C66.3774 51.8402 67.2476 51.1673 68.1472 50.5807C69.9618 49.4156 71.9395 48.6141 73.9086 47.9621C75.8843 47.3184 77.8707 46.838 79.8336 46.4725C81.7962 46.104 83.7348 45.8427 85.6329 45.6629C89.4303 45.3081 93.0624 45.2696 96.4486 45.4372C99.8348 45.6087 102.979 45.9842 105.81 46.5406C108.639 47.0966 111.164 47.8013 113.296 48.6514C115.425 49.4969 117.179 50.4612 118.423 51.5018C119.043 52.0201 119.552 52.5376 119.911 53.0497C120.011 53.1703 120.078 53.3064 120.158 53.426C120.236 53.5475 120.31 53.6644 120.362 53.7861C120.419 53.905 120.474 54.0182 120.526 54.126C120.57 54.2371 120.602 54.3459 120.638 54.4464C120.717 54.646 120.747 54.8329 120.779 54.9922C120.794 55.072 120.812 55.1447 120.82 55.2121C120.825 55.2799 120.828 55.3412 120.832 55.3961C120.844 55.6147 120.848 55.7264 120.848 55.7264Z" fill="#4AC49E"/>
<path d="M110.557 32.257C110.557 32.257 110.462 32.1982 110.28 32.0784C110.234 32.0484 110.184 32.0147 110.127 31.9777C110.069 31.9442 110.001 31.915 109.929 31.8791C109.784 31.8091 109.619 31.7207 109.414 31.6634C109.313 31.6312 109.208 31.5919 109.094 31.5599C108.978 31.5363 108.856 31.5114 108.728 31.4855C108.602 31.4535 108.465 31.4416 108.323 31.4301C108.181 31.4216 108.034 31.393 107.879 31.3991C107.259 31.3752 106.545 31.4657 105.762 31.6444C104.191 32.0013 102.368 32.8085 100.407 33.9865C98.4408 35.1631 96.3477 36.7403 94.1844 38.6501C92.0202 40.5606 89.8055 42.8305 87.6025 45.4164C85.4026 48.0046 83.2137 50.914 81.172 54.1463C80.1533 55.7633 79.1739 57.4622 78.264 59.2449C77.3516 61.0259 76.5153 62.8951 75.8137 64.854C75.1226 66.8123 74.5442 68.868 74.3501 71.0072C74.2609 72.0727 74.2575 73.1658 74.4921 74.2243C74.6102 74.7521 74.7909 75.2664 75.0452 75.7449C75.3142 76.2144 75.6592 76.6394 76.0813 76.9813C76.5156 77.3077 77.0102 77.539 77.5294 77.685C78.0536 77.8128 78.5939 77.8628 79.1317 77.846C80.2098 77.8121 81.262 77.5359 82.2661 77.1838C84.2784 76.4618 86.1142 75.386 87.8279 74.2243C89.5394 73.0524 91.1313 71.7719 92.619 70.4389C94.109 69.1081 95.5008 67.7305 96.8043 66.3348C99.4081 63.54 101.664 60.6826 103.608 57.8944C105.549 55.1037 107.183 52.3804 108.483 49.7962C109.782 47.213 110.779 44.7813 111.422 42.5734C112.067 40.3696 112.389 38.3922 112.341 36.7732C112.318 35.9661 112.227 35.248 112.05 34.6512C112.017 34.4987 111.953 34.3625 111.91 34.2259C111.863 34.0902 111.817 33.9606 111.755 33.8447C111.698 33.7267 111.644 33.6142 111.592 33.5071C111.533 33.4043 111.469 33.3116 111.413 33.2216C111.307 33.0364 111.18 32.8978 111.077 32.7741C111.024 32.7131 110.979 32.6535 110.932 32.605C110.883 32.5596 110.838 32.5184 110.797 32.4815C110.637 32.3351 110.557 32.257 110.557 32.257C110.557 32.257 110.643 32.3283 110.807 32.4725C110.848 32.5088 110.894 32.5494 110.944 32.594C110.992 32.6421 111.038 32.7009 111.092 32.7616C111.197 32.8846 111.326 33.0227 111.434 33.2077C111.492 33.2977 111.557 33.3904 111.617 33.4934C111.67 33.6005 111.726 33.7135 111.784 33.8316C111.847 33.9477 111.894 34.0775 111.942 34.2137C111.987 34.3506 112.052 34.4877 112.086 34.6404C112.269 35.2397 112.364 35.9612 112.391 36.7718C112.446 38.3978 112.13 40.3822 111.49 42.5931C110.852 44.8082 109.859 47.2467 108.562 49.8365C107.266 52.4273 105.634 55.1572 103.694 57.9544C101.751 60.7489 99.4954 63.6127 96.8894 66.4146C95.5852 67.8134 94.1917 69.1947 92.6995 70.5294C91.2095 71.866 89.6144 73.1507 87.8978 74.327C86.1785 75.4931 84.3364 76.5743 82.3083 77.3026C81.2959 77.6579 80.2334 77.9377 79.1361 77.9726C78.5886 77.99 78.0362 77.9394 77.4976 77.8077C76.9639 77.6581 76.4527 77.4192 76.0039 77.0815C75.567 76.7285 75.2111 76.289 74.9348 75.8064C74.6733 75.315 74.4891 74.7892 74.3688 74.2519C74.1303 73.1746 74.135 72.0703 74.225 70.9959C74.4212 68.8397 75.003 66.7765 75.6973 64.8118C76.402 62.8468 77.2414 60.9736 78.1567 59.1893C79.0696 57.4034 80.0522 55.7023 81.0737 54.0833C83.1215 50.8474 85.3165 47.9365 87.5229 45.3476C89.7325 42.761 91.9542 40.4916 94.1255 38.5823C96.296 36.6739 98.3967 35.0987 100.37 33.9253C102.34 32.7504 104.172 31.9472 105.751 31.596C106.539 31.4204 107.257 31.3333 107.88 31.3613C108.036 31.3559 108.184 31.3857 108.327 31.3952C108.47 31.4079 108.607 31.4211 108.734 31.454C108.863 31.4814 108.985 31.5072 109.102 31.5321C109.216 31.5651 109.322 31.6058 109.422 31.639C109.628 31.6985 109.793 31.7895 109.938 31.8615C110.009 31.8986 110.077 31.9286 110.136 31.9633C110.192 32.0016 110.242 32.0362 110.287 32.0672C110.467 32.1912 110.557 32.257 110.557 32.257Z" fill="#4AC49E"/>
<path d="M64.2115 67.4177C64.6201 67.8286 64.6201 68.4947 64.2115 68.9053C63.803 69.3162 63.1407 69.3162 62.7322 68.9053C62.3236 68.4945 62.3236 67.8283 62.7322 67.4177C63.1407 67.0068 63.803 67.0068 64.2115 67.4177Z" fill="#4AC49E"/>
<path d="M123.227 34.8178C123.227 35.3988 122.759 35.8699 122.181 35.8699C121.603 35.8699 121.135 35.399 121.135 34.8178C121.135 34.2369 121.603 33.7659 122.181 33.7659C122.759 33.7659 123.227 34.2366 123.227 34.8178Z" fill="#4AC49E"/>
<path d="M70.8169 70.8769C70.8169 71.0245 70.6978 71.1443 70.551 71.1443C70.4043 71.1443 70.2852 71.0245 70.2852 70.8769C70.2852 70.7293 70.4043 70.6095 70.551 70.6095C70.6978 70.6095 70.8169 70.7293 70.8169 70.8769Z" fill="#4AC49E"/>
<path d="M76.4908 41.397C76.4908 41.5447 76.3716 41.6645 76.2249 41.6645C76.0781 41.6645 75.959 41.5447 75.959 41.397C75.959 41.2494 76.0781 41.1296 76.2249 41.1296C76.3719 41.1296 76.4908 41.2494 76.4908 41.397Z" fill="#4AC49E"/>
<path d="M117.973 55.7264C117.973 55.874 117.854 55.9938 117.707 55.9938C117.561 55.9938 117.441 55.874 117.441 55.7264C117.441 55.5788 117.561 55.459 117.707 55.459C117.854 55.459 117.973 55.5788 117.973 55.7264Z" fill="#4AC49E"/>
<path d="M121.668 43.2619C121.668 43.4095 121.549 43.5294 121.403 43.5294C121.256 43.5294 121.137 43.4095 121.137 43.2619C121.137 43.1143 121.256 42.9945 121.403 42.9945C121.549 42.9945 121.668 43.1143 121.668 43.2619Z" fill="#4AC49E"/>
<path d="M164.406 83.1803C165.572 82.4439 166.908 81.9816 168.277 81.8403C168.91 81.7749 169.601 81.7934 170.109 82.179C170.216 82.2607 170.321 82.3817 170.297 82.5152C170.279 82.6133 170.197 82.6848 170.118 82.7453C168.543 83.9538 166.16 84.1063 164.406 83.1803Z" fill="#4AC49E"/>
<path d="M164.504 83.0703C165.38 82.3825 166.262 81.6897 167.004 80.8577C167.746 80.0257 168.35 79.0375 168.572 77.9419C168.639 77.6096 168.66 77.2299 168.448 76.9661C166.455 78.5316 164.889 80.5564 164.504 83.0703Z" fill="#4AC49E"/>
<path d="M164.428 83.1652C164.578 82.0687 164.632 80.9414 164.381 79.8634C164.131 78.7854 163.548 77.7538 162.633 77.1389C162.288 77.9485 162.436 78.8813 162.679 79.7275C163.054 81.0351 163.642 82.2805 164.413 83.399" fill="#4AC49E"/>
<path d="M162.473 86.6864C163.659 86.8313 164.692 87.4601 165.577 88.2668C166.463 89.0734 167.092 90.1602 167.353 91.3329C166.19 91.2606 165.203 90.4354 164.487 89.5102C163.771 88.5849 163.275 87.5699 162.489 86.7044" fill="#4AC49E"/>
<path d="M162.049 87.2495C163.004 84.8827 162.658 82.0311 161.165 79.9649C160.489 82.3822 160.737 85.1128 162.049 87.2495Z" fill="#4AC49E"/>
<path d="M159.467 90.341C160.543 90.2739 161.638 90.5316 162.572 91.0727C163.507 91.6139 164.278 92.4362 164.761 93.4061C164.827 93.5379 164.884 93.7055 164.797 93.8236C164.72 93.9263 164.573 93.9358 164.445 93.9276C163.402 93.8595 162.478 93.2282 161.714 92.5092C160.951 91.7904 160.287 90.9598 159.443 90.3381" fill="#4AC49E"/>
<path d="M159.548 90.1726C160.104 88.3858 160.138 86.4387 159.647 84.6331C159.453 83.9201 159.127 83.1694 158.471 82.8351C158.415 82.8065 158.35 82.7811 158.292 82.8034C158.236 82.8243 158.204 82.8819 158.178 82.9358C157.945 83.4258 157.877 83.9824 157.901 84.525C157.925 85.0679 158.037 85.6023 158.149 86.134C158.355 87.1173 158.465 88.174 159.001 89.0219C159.129 89.2232 159.241 89.4406 159.342 89.6563C159.443 89.872 159.444 89.9477 159.537 90.1192" fill="#4AC49E"/>
<path d="M152.715 91.1967C153.221 89.2598 152.683 86.9118 151.47 85.3239C151.381 85.207 151.262 85.0816 151.116 85.0952C150.893 85.116 150.835 85.4156 150.845 85.6411C150.933 87.6204 151.589 89.5709 152.715 91.1967Z" fill="#4AC49E"/>
<path d="M152.098 91.6203C149.759 92.2327 147.075 91.6374 145.129 90.1946C146.282 89.6068 147.641 89.4389 148.902 89.7288C150.162 90.0187 151.314 90.5867 152.098 91.6203Z" fill="#4AC49E"/>
<path d="M151.579 90.3305C150.269 88.1818 147.757 86.7793 145.254 86.6517C145.542 87.6755 146.379 88.4715 147.323 88.9524C148.267 89.4333 149.32 89.6427 150.359 89.8454C150.763 89.9245 151.317 90.0113 151.579 90.3305Z" fill="#4AC49E"/>
<path d="M152.586 84.0729C152.231 82.8502 151.874 81.6168 151.777 80.347C151.679 79.0772 151.859 77.7513 152.514 76.6614C153.738 79.0436 153.862 81.8269 152.622 84.2005" fill="#4AC49E"/>
<path d="M148.465 81.9779C147.033 79.3615 144.113 77.2714 141.158 76.9786C142.298 79.8331 145.407 82.0394 148.465 81.9779Z" fill="#4AC49E"/>
<path d="M149.365 82.4908C147.23 82.8177 145.411 84.189 143.416 85.0203C142.99 85.1982 142.529 85.3397 142.072 85.2795C141.614 85.2192 141.162 84.9103 141.059 84.4572C140.974 84.0812 141.144 83.682 141.412 83.4063C141.681 83.1308 142.035 82.9585 142.389 82.8104C144.562 81.9005 146.892 81.8779 149.181 82.4295" fill="#4AC49E"/>
<path d="M150.599 83.9965C150.116 84.1356 149.951 84.3874 149.568 84.7151C148.27 85.8273 146.713 86.632 145.058 87.0455C144.885 87.0885 144.659 87.1058 144.574 86.9492C144.499 86.8125 144.594 86.6468 144.69 86.5251C145.384 85.6523 146.373 85.0555 147.414 84.6656C148.455 84.2757 149.357 83.8057 150.599 83.9065" fill="#4AC49E"/>
<path d="M151.994 74.9017C150.258 76.5313 147.813 77.368 145.449 77.1411C145.342 77.1308 145.224 77.1135 145.151 77.0335C144.987 76.8532 145.184 76.575 145.376 76.4245C147.3 74.9158 149.631 74.2904 151.994 74.9017Z" fill="#4AC49E"/>
<path d="M150.342 74.2934C148.048 72.5632 144.901 72.041 142.176 72.9382C143.204 73.9576 144.631 74.5061 146.067 74.6564C147.503 74.8067 148.942 74.6467 150.342 74.2934Z" fill="#4AC49E"/>
<path d="M150.998 70.1139C151.187 68.1824 151.064 66.6574 151.198 64.7169C151.208 64.5619 151.241 64.3753 151.386 64.3194C151.587 64.2415 151.754 64.4899 151.82 64.6959C152.392 66.4849 152.079 68.5367 151.001 70.0714" fill="#4AC49E"/>
<path d="M151.136 70.3274C149.834 69.5178 148.858 68.4603 147.955 67.2174C147.326 66.3526 146.797 65.3166 146.94 64.2552C147.822 64.2374 148.661 64.7271 149.234 65.4013C149.808 66.0757 150.149 66.9187 150.404 67.7686C150.659 68.6189 150.837 69.4922 151.136 70.3274Z" fill="#4AC49E"/>
<path d="M148.011 69.4541C145.154 68.3915 142.489 66.8109 140.182 64.8108C141.117 64.4319 142.188 64.6585 143.123 65.0382C145.259 65.9056 147.004 67.3694 148.052 69.4331" fill="#4AC49E"/>
<path d="M150.258 71.3842C148.813 71.543 147.345 71.6464 145.911 71.4054C144.501 71.1685 143.169 70.6065 141.852 70.049C141.743 70.0029 141.625 69.9472 141.577 69.8384C141.525 69.7201 141.58 69.5759 141.676 69.4892C141.771 69.4024 141.898 69.3609 142.022 69.326C143.454 68.9232 144.999 69.1118 146.408 69.5895C147.816 70.0675 148.971 70.6351 150.258 71.3842Z" fill="#4AC49E"/>
<path d="M158.51 74.9678C159.496 72.9658 159.433 70.6297 158.581 68.5664C157.981 69.4853 157.908 70.6556 158.017 71.7492C158.127 72.8428 158.458 73.9684 158.479 75.0673" fill="#4AC49E"/>
<path d="M162.451 72.9694C164.913 72.9221 167.376 73.9774 169.047 75.7957C167.818 75.9899 166.553 75.6712 165.435 75.1222C164.318 74.5732 163.324 73.8032 162.34 73.0385" fill="#4AC49E"/>
<path d="M165.098 72.0786C166.302 71.9802 167.461 71.8304 168.619 72.1872C169.777 72.5441 170.831 73.3542 171.303 74.4761C170.176 74.6037 169.034 74.3197 168.002 73.849C166.969 73.3786 166.03 72.7269 165.098 72.0786Z" fill="#4AC49E"/>
<path d="M161.176 72.1193C162.26 71.4051 163.372 70.6783 164.634 70.3823C165.895 70.0866 167.358 70.3052 168.237 71.2614C167.216 71.8641 165.977 71.9353 164.793 71.9344C163.609 71.9334 162.157 71.92 161.041 72.3172" fill="#4AC49E"/>
<path d="M161.171 72.1769C163.023 70.3476 163.725 67.0612 162.98 64.56C161.524 66.785 160.872 69.5302 161.171 72.1769Z" fill="#4AC49E"/>
<path d="M156.076 66.9936C155.727 66.1767 155.481 65.3195 155.167 64.488C154.854 63.6564 154.464 62.8383 153.872 62.178C153.28 61.5178 152.461 61.0264 151.578 60.9822C152.131 63.4995 153.793 65.7487 156.031 67.0066" fill="#4AC49E"/>
<path d="M156.998 68.0736C157.576 67.2732 158.244 66.187 159.028 65.5896C159.812 64.9923 160.833 64.6307 161.79 64.8601C160.817 66.6096 158.978 67.8427 156.998 68.0736Z" fill="#4AC49E"/>
<path d="M156.815 67.0602C157.194 66.0918 157.575 65.1131 157.729 64.0839C157.882 63.0547 157.789 61.9553 157.265 61.0576C156.249 62.9908 155.921 65.0658 156.763 67.0822" fill="#4AC49E"/>
<path d="M156.068 61.0573C155.492 59.141 153.747 57.7299 151.864 57.0826C151.626 57.0008 151.375 56.933 151.126 56.9716C150.878 57.0101 150.635 57.1807 150.583 57.4276C150.515 57.7536 150.782 58.0456 151.034 58.2623C152.501 59.5236 154.225 60.481 156.068 61.0573Z" fill="#4AC49E"/>
<path d="M156.048 59.4901C155.975 58.2545 155.898 57.0011 155.498 55.8304C155.099 54.6597 154.329 53.5614 153.208 53.049C153.018 54.2971 153.565 55.5386 154.225 56.6124C154.885 57.6862 155.681 58.6998 156.078 59.8976" fill="#4AC49E"/>
<path d="M156.076 60.3407C156.552 58.9441 156.601 57.1702 157.433 55.9533C158.014 55.1028 158.945 54.5235 159.446 53.6227C159.778 54.464 159.677 55.4334 159.328 56.2686C158.981 57.1038 158.406 57.8224 157.79 58.4834C157.175 59.1444 156.648 59.6417 156.076 60.3407Z" fill="#4AC49E"/>
<path d="M156.068 101.47C156.105 101.47 156.137 92.1532 156.14 80.6632C156.143 69.1691 156.115 59.8542 156.078 59.8542C156.04 59.8542 156.008 69.1689 156.006 80.6632C156.004 92.1532 156.031 101.47 156.068 101.47Z" fill="#4AC49E"/>
<path d="M147.973 73.5618C147.97 73.5709 148.094 73.6172 148.321 73.6934C148.571 73.7783 148.893 73.8876 149.28 74.0186C150.088 74.2956 151.198 74.6964 152.403 75.1932C153.596 75.7081 154.721 76.126 155.362 76.6843C155.682 76.96 155.866 77.2582 155.957 77.4756C156.049 77.6942 156.065 77.8282 156.077 77.8258C156.082 77.825 156.08 77.7916 156.073 77.7279C156.063 77.6652 156.047 77.5713 156.005 77.4563C155.927 77.2265 155.748 76.9076 155.425 76.6131C155.103 76.3178 154.655 76.0524 154.141 75.8108C153.628 75.5697 153.058 75.3182 152.454 75.0685C151.245 74.5703 150.126 74.1823 149.309 73.9281C148.901 73.8 148.568 73.7056 148.336 73.6431C148.104 73.5823 147.975 73.5528 147.973 73.5618Z" fill="#4AC49E"/>
<path d="M145.319 67.0065C145.315 67.01 145.349 67.0461 145.416 67.1115C145.495 67.1859 145.593 67.2788 145.713 67.3923C145.989 67.6446 146.365 67.9879 146.823 68.4061C147.781 69.2643 149.081 70.4279 150.516 71.7138C151.958 73.0046 153.204 74.238 154.067 75.1664C154.5 75.6302 154.84 76.0143 155.072 76.2825C155.181 76.4069 155.27 76.5089 155.341 76.5909C155.403 76.6607 155.437 76.696 155.441 76.6931C155.445 76.6902 155.417 76.6492 155.362 76.5738C155.306 76.4989 155.224 76.3874 155.112 76.249C154.892 75.9699 154.561 75.5753 154.137 75.102C153.289 74.1543 152.05 72.9067 150.605 71.6133C149.158 70.3254 147.842 69.1686 146.885 68.3346C146.416 67.9294 146.031 67.597 145.747 67.3528C145.621 67.2469 145.517 67.1605 145.434 67.091C145.361 67.0324 145.321 67.0031 145.319 67.0065Z" fill="#4AC49E"/>
<path d="M152.072 73.0263C152.11 73.0094 151.809 72.3099 151.509 71.4254C151.206 70.5409 151.063 69.7945 151.025 69.8008C150.99 69.8045 151.075 70.5729 151.382 71.4686C151.533 71.9158 151.699 72.3092 151.83 72.5883C151.962 72.8674 152.056 73.0336 152.072 73.0263Z" fill="#4AC49E"/>
<path d="M156.059 78.6654C156.067 78.6707 156.146 78.5782 156.281 78.406C156.432 78.2115 156.623 77.9656 156.851 77.672C157.329 77.0506 157.99 76.1927 158.73 75.2537C159.472 74.3146 160.152 73.4725 160.645 72.863C160.878 72.5734 161.073 72.3309 161.227 72.1391C161.363 71.9668 161.435 71.8687 161.428 71.8626C161.421 71.8565 161.335 71.9432 161.187 72.1052C161.039 72.2669 160.829 72.5048 160.573 72.802C160.06 73.3962 159.367 74.2299 158.625 75.1701C157.883 76.1102 157.233 76.9783 156.774 77.6149C156.545 77.9331 156.362 78.193 156.239 78.375C156.116 78.5568 156.052 78.6597 156.059 78.6654Z" fill="#4AC49E"/>
<path d="M157.834 76.3735C157.856 76.3971 158.33 75.832 158.578 74.9734C158.761 74.3683 158.769 73.8149 158.746 73.5619L158.687 73.5667C158.714 73.6746 158.733 73.7314 158.744 73.7297C158.754 73.728 158.755 73.668 158.746 73.557L158.687 73.5619C158.665 73.8129 158.628 74.3473 158.449 74.9351C158.21 75.7671 157.798 76.3508 157.834 76.3735Z" fill="#4AC49E"/>
<path d="M160.126 73.4745C160.143 73.4933 160.295 73.3 160.645 73.1712C160.992 73.0363 161.514 73.0065 162.086 73.0558C162.66 73.098 163.172 73.201 163.538 73.2915C163.904 73.3828 164.128 73.4545 164.135 73.4357C164.141 73.4198 163.928 73.3159 163.563 73.1998C163.199 73.0846 162.68 72.9648 162.097 72.9216C161.518 72.8713 160.968 72.9162 160.61 73.0829C160.246 73.2447 160.114 73.4711 160.126 73.4745Z" fill="#4AC49E"/>
<path d="M160.668 72.7718C160.678 72.7928 160.971 72.6498 161.464 72.4804C161.956 72.3101 162.657 72.1315 163.448 72.0696C164.24 72.0103 164.96 72.0798 165.472 72.173C165.985 72.2652 166.295 72.3619 166.302 72.3397C166.305 72.3309 166.23 72.2992 166.091 72.2494C165.953 72.1977 165.748 72.1384 165.49 72.0798C164.977 71.9612 164.244 71.8748 163.438 71.9353C162.632 71.9983 161.921 72.1955 161.431 72.3909C161.186 72.488 160.992 72.5778 160.863 72.65C160.733 72.7208 160.664 72.7635 160.668 72.7718Z" fill="#4AC49E"/>
<path d="M156.076 69.8006C156.112 69.8099 156.372 68.9024 156.656 67.7742C156.941 66.6457 157.143 65.7236 157.107 65.7143C157.071 65.7051 156.811 66.6125 156.527 67.741C156.242 68.8693 156.041 69.7916 156.076 69.8006Z" fill="#4AC49E"/>
<path d="M156.04 69.8006C156.08 69.8135 156.247 69.2074 156.683 68.5874C157.107 67.9542 157.649 67.6366 157.63 67.6053C157.623 67.5912 157.473 67.6466 157.264 67.7947C157.055 67.9411 156.797 68.1892 156.574 68.5101C156.121 69.1552 156.008 69.7984 156.04 69.8006Z" fill="#4AC49E"/>
<path d="M156.068 96.5035C156.083 96.5057 156.11 96.2795 156.214 95.884C156.317 95.4884 156.512 94.9272 156.833 94.2709C157.473 92.9555 158.638 91.2877 160.118 89.6171C160.851 88.7745 161.562 87.9796 162.166 87.2185C162.771 86.4585 163.268 85.7343 163.631 85.0938C163.995 84.4538 164.232 83.9045 164.37 83.5171C164.438 83.3228 164.488 83.1711 164.516 83.0661C164.545 82.962 164.558 82.9066 164.554 82.9053C164.542 82.9014 164.474 83.1186 164.322 83.4983C164.169 83.8779 163.921 84.4167 163.549 85.046C163.179 85.6757 162.677 86.3889 162.07 87.1409C161.464 87.8942 160.752 88.6847 160.017 89.5287C158.533 91.2038 157.372 92.8925 156.748 94.2296C156.435 94.897 156.252 95.4689 156.164 95.8715C156.121 96.0733 156.092 96.2304 156.082 96.3388C156.068 96.4461 156.063 96.5027 156.068 96.5035Z" fill="#4AC49E"/>
<path d="M148.754 88.1936C148.75 88.2036 148.89 88.2748 149.137 88.41C149.383 88.5491 149.732 88.7631 150.132 89.0712C150.532 89.3792 150.978 89.7832 151.438 90.2693C151.896 90.7563 152.368 91.3219 152.85 91.9277C153.813 93.1436 154.715 94.2194 155.254 95.0783C155.528 95.5043 155.727 95.8635 155.858 96.1153C155.989 96.3666 156.059 96.5079 156.069 96.5035C156.073 96.5015 156.061 96.464 156.033 96.3942C156.005 96.3249 155.966 96.2207 155.905 96.0921C155.788 95.832 155.6 95.4631 155.334 95.0275C154.81 94.1481 153.916 93.0575 152.954 91.8436C152.472 91.2365 151.994 90.6697 151.527 90.1834C151.059 89.6981 150.6 89.2964 150.188 88.9951C149.777 88.6933 149.417 88.4895 149.162 88.3639C149.035 88.2997 148.931 88.2604 148.862 88.2307C148.793 88.2019 148.756 88.1892 148.754 88.1936Z" fill="#4AC49E"/>
<path d="M148.609 90.8893C148.608 90.9088 148.919 90.9469 149.42 91.0076C149.919 91.0725 150.614 91.1565 151.342 91.3883C152.067 91.6259 152.669 91.9878 153.062 92.2964C153.459 92.6046 153.646 92.8598 153.664 92.8449C153.671 92.8403 153.632 92.7708 153.544 92.6573C153.458 92.5431 153.316 92.3906 153.122 92.2227C152.736 91.8877 152.127 91.5042 151.383 91.2602C150.637 91.0227 149.933 90.9539 149.429 90.9129C148.924 90.8761 148.611 90.872 148.609 90.8893Z" fill="#4AC49E"/>
<path d="M153.429 92.5489C153.471 92.5248 153.106 91.9638 152.823 91.2091C152.557 90.4476 152.495 89.78 152.447 89.7876C152.43 89.7898 152.43 89.9567 152.46 90.2248C152.492 90.492 152.556 90.8636 152.697 91.255C152.838 91.6457 153.024 91.9724 153.166 92.1998C153.311 92.4269 153.414 92.5582 153.429 92.5489Z" fill="#4AC49E"/>
<path d="M146.383 80.956C146.381 80.9604 146.426 80.9841 146.512 81.0253C146.613 81.0712 146.739 81.1288 146.893 81.1993C147.06 81.2713 147.263 81.3625 147.491 81.4836C147.72 81.6024 147.987 81.7246 148.265 81.8927C148.406 81.9735 148.553 82.0579 148.707 82.1455C148.86 82.2341 149.012 82.3395 149.173 82.441C149.499 82.6399 149.825 82.8846 150.174 83.1347C150.856 83.6552 151.573 84.2713 152.263 84.9825C152.946 85.7009 153.534 86.4429 154.028 87.1461C154.265 87.505 154.497 87.8415 154.683 88.176C154.778 88.3417 154.878 88.4978 154.961 88.6547C155.043 88.8118 155.121 88.9631 155.197 89.1078C155.354 89.3931 155.467 89.6658 155.577 89.9001C155.689 90.1336 155.773 90.34 155.839 90.5101C155.904 90.6677 155.957 90.7963 155.999 90.8988C156.037 90.9871 156.059 91.033 156.063 91.0315C156.068 91.0301 156.054 90.9813 156.024 90.8898C155.988 90.7846 155.943 90.6526 155.888 90.4913C155.829 90.3176 155.752 90.1072 155.646 89.8701C155.542 89.6319 155.434 89.355 155.282 89.0651C155.208 88.9182 155.131 88.7648 155.052 88.6054C154.971 88.4461 154.873 88.2877 154.779 88.1196C154.595 87.7805 154.365 87.4394 154.129 87.0758C153.638 86.3633 153.048 85.613 152.359 84.8891C151.663 84.172 150.938 83.5537 150.247 83.0349C149.894 82.7858 149.563 82.5428 149.232 82.3466C149.068 82.2463 148.914 82.1426 148.759 82.0557C148.603 81.9701 148.453 81.8879 148.31 81.8091C148.027 81.6456 147.755 81.5285 147.523 81.4155C147.29 81.3006 147.084 81.2159 146.913 81.151C146.755 81.0897 146.625 81.0397 146.522 81C146.433 80.967 146.385 80.9516 146.383 80.956Z" fill="#4AC49E"/>
<path d="M152.174 84.8573C152.186 84.8554 152.122 84.6292 151.856 84.3806C151.597 84.1322 151.124 83.9023 150.573 83.8857C150.025 83.8711 149.549 84.0256 149.223 84.151C148.897 84.28 148.707 84.3847 148.713 84.4003C148.721 84.4191 148.924 84.3454 149.255 84.241C149.584 84.1397 150.049 84.0063 150.569 84.0204C151.087 84.0365 151.535 84.2373 151.794 84.453C152.059 84.6675 152.153 84.8703 152.174 84.8573Z" fill="#4AC49E"/>
<path d="M153.037 85.7553C153.073 85.7348 152.747 85.2534 152.673 84.5636C152.587 83.875 152.795 83.3309 152.754 83.3194C152.74 83.3133 152.667 83.4399 152.604 83.6666C152.54 83.8921 152.499 84.2205 152.54 84.5792C152.582 84.9376 152.698 85.2475 152.811 85.4522C152.924 85.6581 153.024 85.7645 153.037 85.7553Z" fill="#4AC49E"/>
<path d="M162.466 97.8384C162.267 101.399 161.2 105.02 159.559 108.681H152.424C150.859 105.056 149.866 101.441 149.689 97.8384H162.466Z" fill="#263238"/>
<path d="M150.846 103.6C150.846 103.637 153.195 103.667 156.092 103.667C158.991 103.667 161.34 103.637 161.34 103.6C161.34 103.563 158.991 103.533 156.092 103.533C153.195 103.533 150.846 103.563 150.846 103.6Z" fill="#FAFAFA"/>
<path d="M151.004 104.89C151.004 104.927 153.206 104.957 155.923 104.957C158.64 104.957 160.841 104.927 160.841 104.89C160.841 104.853 158.64 104.822 155.923 104.822C153.206 104.822 151.004 104.853 151.004 104.89Z" fill="#FAFAFA"/>
<path d="M159.444 100.176C159.407 100.176 159.377 100.916 159.377 101.829C159.377 102.742 159.407 103.482 159.444 103.482C159.481 103.482 159.511 102.742 159.511 101.829C159.511 100.916 159.481 100.176 159.444 100.176Z" fill="#FAFAFA"/>
<path d="M155.62 100.176C155.583 100.176 155.553 100.943 155.553 101.888C155.553 102.834 155.583 103.6 155.62 103.6C155.657 103.6 155.687 102.834 155.687 101.888C155.687 100.943 155.657 100.176 155.62 100.176Z" fill="#FAFAFA"/>
<path d="M152.032 100.147C151.995 100.147 151.965 100.929 151.965 101.893C151.965 102.858 151.995 103.639 152.032 103.639C152.069 103.639 152.099 102.858 152.099 101.893C152.099 100.929 152.069 100.147 152.032 100.147Z" fill="#FAFAFA"/>
<path d="M149.914 100.176C149.914 100.213 152.669 100.244 156.068 100.244C159.467 100.244 162.222 100.213 162.222 100.176C162.222 100.139 159.467 100.109 156.068 100.109C152.669 100.109 149.914 100.139 149.914 100.176Z" fill="#FAFAFA"/>
<path d="M26.8795 100.724L25.7269 106.656L23.4703 111.084C23.3077 111.403 23.4477 111.794 23.7752 111.935C23.9586 112.015 24.1672 112 24.3375 111.896C25.4217 111.229 29.3981 108.757 29.4583 108.318C29.5279 107.81 31.0871 102.142 31.0871 102.142L26.8795 100.724Z" fill="#4AC49E"/>
<path d="M23.7754 111.935L29.5451 107.92L29.4905 108.17C29.4432 108.386 29.3224 108.579 29.1472 108.713C28.6785 109.072 27.3624 110.033 24.3554 111.9C24.1805 112.009 23.9619 112.022 23.7754 111.935Z" fill="#263238"/>
<path d="M28.7502 106.174C28.5808 106.244 28.484 106.457 28.5464 106.63C28.6087 106.803 28.8234 106.904 28.994 106.838C29.1645 106.771 29.2885 106.518 29.2072 106.354C29.1259 106.189 28.8676 106.084 28.7179 106.19" fill="#EBEBEB"/>
<path d="M25.6793 109.652C25.6424 109.661 25.5777 109.322 25.2647 109.079C24.959 108.826 24.6167 108.838 24.6172 108.8C24.6153 108.784 24.6997 108.755 24.8411 108.765C24.9816 108.775 25.1759 108.838 25.347 108.975C25.5173 109.112 25.6218 109.289 25.6626 109.424C25.7048 109.561 25.6948 109.65 25.6793 109.652Z" fill="#263238"/>
<path d="M25.0882 110.35C25.0548 110.369 24.9082 110.136 24.6237 109.982C24.3425 109.821 24.0681 109.82 24.0667 109.781C24.0562 109.747 24.366 109.684 24.6877 109.865C25.0109 110.043 25.1222 110.341 25.0882 110.35Z" fill="#263238"/>
<path d="M26.679 108.81C26.6455 108.832 26.4216 108.471 26.0002 108.192C25.5829 107.907 25.1666 107.836 25.1739 107.796C25.1713 107.762 25.6254 107.777 26.0737 108.082C26.5247 108.383 26.7108 108.8 26.679 108.81Z" fill="#263238"/>
<path d="M27.1788 107.036C27.1555 107.068 26.8607 106.86 26.4423 106.752C26.025 106.638 25.6669 106.671 25.6623 106.632C25.6524 106.6 26.0274 106.502 26.476 106.623C26.9258 106.741 27.2035 107.013 27.1788 107.036Z" fill="#263238"/>
<path d="M27.5611 105.303C27.5354 105.334 27.2523 105.065 26.8021 104.987C26.3535 104.899 25.9942 105.049 25.9809 105.012C25.9741 104.997 26.0541 104.937 26.2067 104.889C26.3581 104.839 26.584 104.812 26.8258 104.856C27.0677 104.901 27.2691 105.007 27.3933 105.107C27.5187 105.207 27.5726 105.292 27.5611 105.303Z" fill="#263238"/>
<path d="M26.8827 104.659C26.8752 104.658 26.8793 104.575 26.9235 104.434C26.9676 104.294 27.0547 104.093 27.2275 103.888C27.3148 103.792 27.4116 103.666 27.5923 103.624C27.6823 103.603 27.8005 103.645 27.8531 103.739C27.9055 103.83 27.9062 103.932 27.8878 104.026C27.8 104.399 27.4012 104.691 26.9703 104.652C26.5394 104.606 26.211 104.28 26.1147 103.92C26.0965 103.828 26.0935 103.72 26.161 103.63C26.2277 103.539 26.3558 103.526 26.4366 103.558C26.6052 103.623 26.6933 103.748 26.7791 103.846C26.9458 104.054 27.0334 104.254 27.0797 104.393C27.126 104.533 27.1328 104.615 27.1253 104.617C27.1013 104.628 27.0402 104.294 26.7078 103.907C26.6227 103.816 26.5259 103.703 26.4031 103.663C26.3432 103.644 26.2852 103.657 26.2527 103.701C26.2199 103.744 26.2161 103.821 26.2333 103.894C26.3165 104.189 26.6173 104.487 26.9822 104.52C27.3449 104.556 27.6952 104.299 27.7687 103.999C27.7854 103.927 27.782 103.849 27.7529 103.798C27.724 103.747 27.669 103.723 27.61 103.733C27.4858 103.754 27.3822 103.861 27.2968 103.95C26.9553 104.33 26.9075 104.671 26.8827 104.659Z" fill="#263238"/>
<path d="M46.5374 101.185L47.5197 107.148L49.6488 111.639C49.8023 111.963 49.6512 112.35 49.3196 112.482C49.134 112.556 48.9258 112.536 48.7587 112.426C47.6939 111.728 43.79 109.142 43.7425 108.702C43.6874 108.192 42.291 102.481 42.291 102.481L46.5374 101.185Z" fill="#4AC49E"/>
<path d="M49.3185 112.482L43.666 108.301L43.7133 108.553C43.7543 108.77 43.8698 108.966 44.0411 109.106C44.4993 109.477 45.7873 110.476 48.7397 112.43C48.9117 112.543 49.1296 112.563 49.3185 112.482Z" fill="#263238"/>
<path d="M44.5126 106.579C44.6797 106.654 44.7705 106.87 44.7033 107.041C44.6358 107.212 44.4184 107.307 44.2498 107.235C44.0812 107.164 43.9645 106.908 44.0504 106.745C44.1363 106.583 44.3978 106.486 44.5444 106.596" fill="#EBEBEB"/>
<path d="M47.4806 110.144C47.517 110.154 47.5917 109.818 47.9115 109.584C48.2242 109.34 48.5663 109.362 48.5667 109.323C48.5692 109.308 48.4857 109.276 48.3438 109.283C48.2031 109.288 48.0071 109.346 47.8322 109.478C47.658 109.61 47.5483 109.783 47.5037 109.918C47.4578 110.053 47.4651 110.142 47.4806 110.144Z" fill="#263238"/>
<path d="M48.0524 110.859C48.0854 110.879 48.2384 110.65 48.5274 110.504C48.8132 110.351 49.0875 110.359 49.09 110.32C49.1014 110.286 48.7933 110.214 48.4667 110.386C48.1382 110.555 48.0186 110.849 48.0524 110.859Z" fill="#263238"/>
<path d="M46.5071 109.274C46.5401 109.297 46.774 108.943 47.2034 108.676C47.6287 108.403 48.0469 108.344 48.0406 108.304C48.0442 108.271 47.5901 108.272 47.133 108.564C46.6736 108.851 46.4756 109.262 46.5071 109.274Z" fill="#263238"/>
<path d="M46.058 107.486C46.0806 107.519 46.3809 107.32 46.8026 107.223C47.223 107.121 47.5798 107.166 47.5857 107.126C47.5963 107.094 47.2244 106.986 46.7725 107.094C46.3198 107.198 46.0342 107.462 46.058 107.486Z" fill="#263238"/>
<path d="M45.724 105.743C45.7488 105.774 46.0394 105.513 46.4916 105.449C46.9424 105.374 47.2975 105.534 47.3118 105.498C47.3191 105.483 47.2408 105.421 47.0896 105.368C46.9397 105.314 46.7148 105.28 46.4715 105.317C46.2284 105.356 46.0241 105.456 45.897 105.552C45.7692 105.649 45.7129 105.732 45.724 105.743Z" fill="#263238"/>
<path d="M46.4203 105.119C46.4278 105.118 46.4261 105.035 46.3861 104.893C46.3461 104.751 46.2646 104.547 46.0979 104.338C46.0135 104.24 45.9203 104.111 45.7408 104.064C45.6515 104.04 45.5322 104.078 45.4768 104.17C45.4218 104.26 45.4181 104.362 45.4339 104.456C45.5111 104.832 45.9014 105.135 46.3332 105.11C46.7653 105.076 47.103 104.76 47.2095 104.402C47.2303 104.311 47.2362 104.203 47.1714 104.111C47.1073 104.018 46.9797 104.001 46.898 104.032C46.7277 104.091 46.636 104.214 46.5472 104.309C46.3747 104.512 46.2813 104.709 46.2311 104.847C46.1806 104.986 46.1716 105.068 46.1789 105.07C46.2025 105.081 46.2733 104.749 46.6166 104.372C46.7044 104.283 46.8041 104.173 46.9283 104.137C46.9887 104.119 47.0462 104.134 47.0775 104.18C47.109 104.223 47.1107 104.3 47.0913 104.372C46.9996 104.666 46.6903 104.954 46.3247 104.977C45.9611 105.002 45.6183 104.735 45.5535 104.433C45.539 104.361 45.5445 104.283 45.5751 104.233C45.6052 104.183 45.6612 104.16 45.7199 104.172C45.8437 104.196 45.9441 104.306 46.0266 104.398C46.3572 104.787 46.3953 105.13 46.4203 105.119Z" fill="#263238"/>
<path d="M27.4432 61.8847C26.8954 61.0456 24.6225 106.629 24.7749 106.89L30.762 106.977L34.021 82.6203L35.7932 63.9968L38.6508 81.496L42.1568 107.142L48.6999 107.237L44.6558 60.7492L36.1826 55.8657L27.4432 61.8847Z" fill="#263238"/>
<path d="M33.1605 31.2618C33.1605 31.2618 31.3252 31.5826 30.6256 32.1978C29.9259 32.8129 29.2149 34.2271 29.2149 34.2271L25.7266 36.6085L28.7974 48.9169L26.2234 65.9264L26.7375 67.393L45.9791 67.0695L46.3459 65.7348L44.3566 50.2537L45.2304 39.8786L46.0339 35.7126L42.5493 34.1422C42.5493 34.1422 44.1453 33.6442 44.2183 33.3673C44.2913 33.0903 40.6225 31.1959 40.6225 31.1959C40.6225 31.1959 34.8337 30.2092 33.1605 31.2618Z" fill="#4AC49E"/>
<g opacity="0.3">
<path d="M27.3223 57.9366C29.4925 60.766 32.4583 62.8515 35.3758 64.8911C35.9913 65.3212 36.63 65.7619 37.3656 65.9076C38.4189 66.1162 39.5751 65.628 40.1644 64.7254C40.5865 64.0786 40.7299 63.2631 41.2306 62.6756C41.5693 62.2783 42.0431 62.0211 42.4063 61.6468C42.7207 61.3228 42.9424 60.9217 43.1605 60.5257C43.5581 59.8034 43.9557 59.0812 44.3536 58.3589C42.9033 58.3528 41.5635 59.0712 40.2551 59.7002C38.9468 60.3292 37.4922 60.8975 36.0786 60.5723C34.1216 60.1221 32.8746 58.1191 30.994 57.4122C29.8113 56.9677 28.429 57.0999 27.3509 57.7607" fill="black"/>
</g>
<path d="M25.7266 36.6088C25.7266 36.6088 25.0097 37.5292 24.8508 39.4619C24.6919 41.3946 23.454 51.5345 23.8703 52.9919C24.2866 54.4491 29.6749 60.5315 31.4696 60.3817L32.1397 60.1382L32.7811 60.6382L35.6491 58.4761L29.328 50.4763L29.6676 38.96C29.6676 38.96 27.7261 36.153 25.7266 36.6088Z" fill="#4AC49E"/>
<path d="M30.6254 32.198C30.6288 32.2031 30.5674 32.2383 30.4682 32.3307C30.3687 32.4225 30.2324 32.5718 30.0824 32.7882C29.9284 33.0025 29.7722 33.286 29.58 33.6203C29.3755 33.946 29.1412 34.3196 28.8789 34.7376L28.8382 34.6873C29.1868 34.5506 29.613 34.5485 30.0208 34.6829C30.4303 34.8149 30.8267 35.0513 31.2105 35.338C31.9771 35.9217 32.6778 36.7354 33.3561 37.6585C34.7085 39.5141 36.0263 41.807 37.298 44.3482L37.3048 44.3616L37.3043 44.3777C37.2757 45.3838 37.2456 46.4364 37.2151 47.5088C37.0608 52.9519 36.9213 57.879 36.8199 61.4526C36.7648 63.2319 36.7202 64.6737 36.6891 65.678C36.6712 66.1716 36.6571 66.5574 36.6471 66.8265C36.6411 66.9529 36.6365 67.0519 36.6331 67.1251C36.6292 67.1925 36.626 67.2269 36.6238 67.2266C36.6217 67.2266 36.6205 67.192 36.62 67.1247C36.6205 67.0515 36.6209 66.9524 36.6214 66.8258C36.6258 66.5564 36.6319 66.1704 36.6396 65.6765C36.6612 64.672 36.692 63.2299 36.7301 61.4504C36.8157 57.8817 36.9252 52.9526 37.0882 47.5053C37.1195 46.4325 37.15 45.3796 37.1792 44.3734L37.1855 44.4029C35.9203 41.8677 34.6091 39.5734 33.2709 37.7209C32.5994 36.7986 31.9087 35.989 31.1572 35.409C30.7802 35.1233 30.3925 34.8891 29.9966 34.7578C29.6019 34.6243 29.1967 34.6241 28.8622 34.7505L28.7656 34.7871L28.8214 34.7002C29.0883 34.2857 29.327 33.9153 29.5349 33.592C29.7295 33.2643 29.8935 32.9783 30.0526 32.7665C30.2084 32.5518 30.3508 32.4044 30.4553 32.3163C30.5604 32.2278 30.6254 32.198 30.6254 32.198Z" fill="#263238"/>
<path d="M43.5553 33.6683C43.5613 33.6886 43.1868 33.7991 42.6043 34.0336C42.0242 34.2691 41.2322 34.6392 40.475 35.2243C39.7164 35.808 39.1271 36.4546 38.7004 36.9177C38.5022 37.1351 38.3341 37.3198 38.1968 37.4704C38.0767 37.5999 38.0073 37.6692 38.0005 37.6634C37.994 37.6577 38.0507 37.5777 38.1594 37.4381C38.2683 37.2986 38.4287 37.0995 38.6334 36.8579C39.0442 36.3785 39.6276 35.7165 40.3981 35.1231C41.1686 34.5277 41.9796 34.1649 42.572 33.9494C42.8692 33.8409 43.115 33.7686 43.2855 33.7235C43.4568 33.6786 43.5531 33.6605 43.5553 33.6683Z" fill="#263238"/>
<path d="M37.2845 44.3973C37.2758 44.3963 37.2848 44.2677 37.3083 44.0352C37.3352 43.8034 37.3842 43.4689 37.4614 43.0589C37.6125 42.2384 37.8825 41.1174 38.2387 39.8962C38.6016 38.6767 38.9839 37.5882 39.3173 36.8233C39.4817 36.4399 39.6319 36.1369 39.7433 35.9322C39.8592 35.7294 39.9269 35.6199 39.9344 35.6243C39.9419 35.6286 39.8891 35.7463 39.7872 35.9546C39.6899 36.1652 39.5531 36.4719 39.4 36.8579C39.0895 37.628 38.7219 38.7167 38.3602 39.9326C38.005 41.1501 37.7222 42.264 37.5492 43.077C37.4611 43.4832 37.399 43.8136 37.3571 44.0425C37.3185 44.2716 37.293 44.3982 37.2845 44.3973Z" fill="#263238"/>
<path d="M37.8825 37.5909C37.8509 37.5758 38.2912 36.5917 38.8655 35.3932C39.4399 34.1944 39.9309 33.2353 39.9622 33.2506C39.9938 33.2658 39.5537 34.2498 38.9792 35.4483C38.405 36.6469 37.914 37.606 37.8825 37.5909Z" fill="#263238"/>
<path d="M38.4824 42.1566L38.5387 42.0356C38.5967 42.0795 38.6835 42.1107 38.767 42.112C38.8623 42.1134 38.9014 42.082 38.9021 42.039C38.9041 41.9082 38.4987 41.9922 38.5023 41.7325C38.504 41.6137 38.6008 41.5161 38.7983 41.519C38.8856 41.5203 38.9747 41.5425 39.0387 41.5844L38.9873 41.7067C38.9232 41.6689 38.857 41.6498 38.7954 41.6491C38.7 41.6476 38.6627 41.683 38.6622 41.7272C38.6602 41.856 39.0659 41.7731 39.062 42.0297C39.0603 42.1466 38.9625 42.2449 38.7638 42.2423C38.6542 42.2401 38.5433 42.2054 38.4824 42.1566Z" fill="white"/>
<path d="M39.7099 42.1133L39.708 42.2431L39.1699 42.2353L39.1799 41.5362L39.7051 41.5438L39.7032 41.6736L39.3378 41.6682L39.3356 41.82L39.6583 41.8246L39.6566 41.9505L39.3339 41.9459L39.3317 42.1077L39.7099 42.1133Z" fill="white"/>
<path d="M39.795 41.8949C39.7979 41.6841 39.9609 41.5357 40.1775 41.5389C40.2976 41.5406 40.3973 41.586 40.4616 41.6667L40.3571 41.7612C40.3112 41.7065 40.253 41.6777 40.1834 41.6767C40.0533 41.6748 39.9597 41.7653 39.9577 41.8973C39.9558 42.0291 40.0468 42.1223 40.1771 42.1242C40.2467 42.1252 40.3056 42.0981 40.3529 42.044L40.4548 42.1413C40.3881 42.2214 40.2872 42.2638 40.1661 42.2621C39.9507 42.2587 39.7921 42.1057 39.795 41.8949Z" fill="white"/>
<path d="M41.0788 42.0539C41.0678 42.0195 41.0586 41.9853 41.0501 41.9516C41.0409 41.9287 41.0341 41.9053 41.0264 41.8821L41.0254 41.949C41.0234 42.0817 40.9662 42.1359 40.8677 42.1344C40.7704 42.1329 40.7136 42.0773 40.7156 41.9443L40.7212 41.5588L40.5603 41.5566L40.5547 41.948C40.5518 42.1537 40.6673 42.2693 40.865 42.272C40.981 42.2737 41.0683 42.2344 41.1227 42.1612C41.1052 42.1273 41.0906 42.0912 41.0788 42.0539Z" fill="white"/>
<path d="M41.1167 41.7343L41.1133 41.9722C41.1155 41.9807 41.1179 41.989 41.1203 41.9975C41.1269 42.0163 41.1351 42.0336 41.1397 42.0539C41.1465 42.0832 41.1533 42.1125 41.1603 42.1417C41.1795 42.2235 41.1829 42.2998 41.1747 42.3704C41.2343 42.3169 41.2683 42.2357 41.27 42.1281L41.2756 41.7367L41.1167 41.7343Z" fill="white"/>
<path d="M41.8668 42.4442L41.7356 42.2476H41.7276L41.5876 42.2456L41.5847 42.4403L41.4238 42.4379L41.4338 41.7388L41.7346 41.7432C41.9202 41.7459 42.0349 41.8445 42.0327 42.0014C42.0313 42.1063 41.9774 42.1824 41.8867 42.22L42.0393 42.4469L41.8668 42.4442ZM41.7239 41.8748L41.5929 41.8728L41.5895 42.1166L41.7205 42.1185C41.8188 42.12 41.8692 42.0748 41.8702 41.9989C41.8712 41.9218 41.8222 41.8762 41.7239 41.8748Z" fill="white"/>
<path d="M42.1642 41.7493L42.3251 41.7517L42.3151 42.4508L42.1543 42.4483L42.1642 41.7493Z" fill="white"/>
<path d="M42.6326 41.8878L42.4102 41.8846L42.4121 41.7529L43.0176 41.7617L43.0157 41.8934L42.7932 41.8903L42.7852 42.4576L42.6244 42.4551L42.6326 41.8878Z" fill="white"/>
<path d="M43.4177 42.2188L43.4141 42.4665L43.2532 42.4641L43.2569 42.2144L42.9941 41.7611L43.1649 41.7635L43.3462 42.0768L43.5363 41.7689L43.6943 41.7711L43.4177 42.2188Z" fill="white"/>
<path d="M41.682 44.0425C41.674 44.0457 41.6402 43.9805 41.5861 43.8593C41.5311 43.7385 41.4614 43.5591 41.3845 43.3344C41.23 42.8852 41.0626 42.2462 40.9707 41.5249C40.8802 40.8032 40.8838 40.1422 40.9217 39.6686C40.9403 39.4316 40.9631 39.2406 40.9864 39.1095C41.0087 38.9785 41.025 38.9068 41.0337 38.908C41.0536 38.9104 41.0252 39.202 41.0109 39.6732C40.9961 40.1441 41.0068 40.7961 41.0961 41.5088C41.1868 42.2213 41.3384 42.8549 41.4697 43.3073C41.6004 43.7599 41.7006 44.0352 41.682 44.0425Z" fill="#263238"/>
<g opacity="0.3">
<path d="M37.7596 42.1003C37.6563 42.9689 37.3795 43.3981 37.3668 44.2726C37.3642 44.46 37.0684 47.4177 37.2421 47.4861C37.4464 47.5663 38.2249 45.4116 38.3947 44.3377C38.5279 43.4962 38.764 42.3889 38.9039 41.5483C39.3122 39.0964 40.2169 37.7761 41.4849 35.6418C41.7251 35.2378 42.6215 34.1376 42.6215 34.1376C42.5351 34.0827 42.1795 34.252 41.9306 34.3647C41.2154 34.6883 39.935 35.7175 39.935 35.7175C39.935 35.7175 39.1655 37.1961 38.9056 37.9403C38.4078 39.3675 38.0226 40.8075 37.7402 42.2418" fill="black"/>
</g>
<g opacity="0.3">
<path d="M29.7475 34.6548C29.7475 34.6548 28.9656 35.0845 28.9707 35.4305C28.9756 35.7765 29.239 36.071 29.5401 36.2386C29.8412 36.406 30.1837 36.479 30.5061 36.5998C31.2652 36.8845 31.8974 37.4308 32.469 38.0084C33.4061 38.9551 34.229 40.0163 34.9141 41.1609C35.4837 42.113 36.0058 43.1731 36.9597 43.7341C36.3142 42.5729 35.6446 41.4493 34.999 40.2881C34.3547 39.1291 33.6104 38.0296 32.771 37.0048C31.9314 35.9795 30.5631 34.7373 29.7475 34.6548Z" fill="black"/>
</g>
<path d="M26.963 51.7949C26.9598 51.7951 26.9564 51.7734 26.9525 51.7312C26.9479 51.689 26.9477 51.6258 26.9545 51.5438C26.9693 51.3815 27.0205 51.1373 27.1864 50.8772C27.348 50.6215 27.6396 50.3445 28.0586 50.2411C28.4681 50.1374 28.9923 50.2057 29.4021 50.5417L29.3079 50.5883C29.2713 49.8455 29.3176 49.0033 29.4523 48.1324C29.5755 47.3297 29.7213 46.5733 29.8048 45.8783C29.8911 45.1842 29.9363 44.5549 29.9477 44.0254C29.9634 43.4962 29.9612 43.067 29.9547 42.7705C29.9537 42.6344 29.953 42.5216 29.9525 42.4289C29.9535 42.3506 29.9559 42.3094 29.9603 42.3091C29.9646 42.3089 29.9705 42.3496 29.978 42.4275C29.985 42.5202 29.9935 42.6327 30.0039 42.7686C30.0258 43.065 30.0415 43.4952 30.0372 44.0271C30.0369 44.559 30.001 45.1932 29.9205 45.8923C29.8429 46.5923 29.6997 47.3528 29.5775 48.151C29.4438 49.0167 29.3941 49.8463 29.4227 50.5829L29.4278 50.7127L29.3285 50.6295C28.9559 50.3172 28.4659 50.2435 28.0806 50.334C27.6881 50.4231 27.4072 50.6754 27.2437 50.9152C27.0768 51.1585 27.0164 51.3913 26.9906 51.5479C26.9666 51.7068 26.9717 51.7946 26.963 51.7949Z" fill="#263238"/>
<path d="M27.5744 57.7394C27.5766 57.7372 27.603 57.7604 27.6518 57.8073C27.7068 57.8614 27.7772 57.9302 27.8643 58.0156C28.0533 58.1945 28.3303 58.4568 28.7041 58.7623C29.079 59.0658 29.5457 59.4211 30.117 59.7659C30.4028 59.9354 30.7129 60.1131 31.0571 60.2414C31.2272 60.3053 31.4113 60.3402 31.5976 60.3227C31.7796 60.3078 31.9727 60.2324 32.0969 60.1018L32.1345 60.0623L32.1747 60.0935C32.3768 60.25 32.5947 60.4188 32.8176 60.5916L32.7466 60.5911C33.6296 59.9237 34.5981 59.1917 35.6119 58.4253L35.6007 58.5163C35.5847 58.4961 35.5672 58.4744 35.5498 58.4524C34.6849 57.3698 33.9147 56.3011 33.1978 55.3412C32.4841 54.3791 31.8363 53.517 31.2757 52.8062C30.7163 52.0947 30.242 51.5367 29.9016 51.1629C29.7337 50.9736 29.5964 50.8335 29.5037 50.7379C29.4116 50.6415 29.3647 50.5895 29.3676 50.5861C29.3706 50.5829 29.4234 50.6288 29.5215 50.7193C29.6202 50.8091 29.7636 50.9443 29.9375 51.1287C30.29 51.4933 30.7762 52.044 31.3455 52.7496C31.9159 53.4546 32.5721 54.312 33.2909 55.2704C34.0129 56.2264 34.7868 57.2937 35.648 58.3719C35.6655 58.3936 35.6827 58.4156 35.6987 58.4356L35.74 58.4873L35.6878 58.5266C34.672 59.2903 33.7019 60.0199 32.8174 60.685L32.7815 60.7121L32.7463 60.6845C32.5243 60.5105 32.3074 60.3405 32.1063 60.1829L32.1842 60.1743C32.0226 60.3419 31.813 60.4127 31.6078 60.4312C31.4028 60.4495 31.2007 60.4083 31.0224 60.3395C30.6658 60.2029 30.3567 60.0208 30.0692 59.8459C29.4967 59.4911 29.0329 59.1268 28.6622 58.814C28.2925 58.4993 28.0217 58.2282 27.84 58.0408C27.7578 57.95 27.6915 57.8771 27.6394 57.8197C27.594 57.769 27.5722 57.7416 27.5744 57.7394Z" fill="#263238"/>
<path d="M29.8791 39.7998C29.8565 39.8076 29.7641 39.5175 29.5305 39.0927C29.4155 38.8795 29.2556 38.6389 29.0594 38.3873C28.858 38.1397 28.6171 37.8837 28.3364 37.6453C28.0528 37.4106 27.7588 37.2186 27.4803 37.0639C27.1989 36.915 26.9347 36.8003 26.7054 36.7249C26.2479 36.5702 25.9476 36.5312 25.9512 36.5075C25.9524 36.4988 26.0276 36.5031 26.164 36.519C26.3005 36.5317 26.4961 36.5717 26.7324 36.6393C26.9696 36.7049 27.2435 36.8135 27.5346 36.9602C27.8228 37.1127 28.1266 37.3069 28.4175 37.5475C28.7052 37.7917 28.95 38.0572 29.1511 38.3146C29.3471 38.5764 29.5026 38.8277 29.6096 39.0505C29.7185 39.2721 29.7927 39.4582 29.8299 39.591C29.8696 39.7235 29.8874 39.7971 29.8791 39.7998Z" fill="#263238"/>
<g opacity="0.3">
<path d="M41.4566 43.4188C41.5367 43.5925 41.8219 43.4847 41.8554 43.3495C41.8889 43.2144 41.8193 43.0775 41.7555 42.954C41.3035 42.08 41.0306 41.113 40.9585 40.1304C40.8819 41.3229 41.0073 42.313 41.4566 43.4188Z" fill="black"/>
</g>
<g opacity="0.3">
<path d="M26.861 51.5382C26.6468 50.8567 26.9697 50.0452 27.5922 49.7004C27.7509 49.6125 27.9304 49.552 28.1111 49.5654C28.5044 49.5942 28.786 49.9458 29.0167 50.2672C28.5813 50.1359 28.0917 50.1981 27.7023 50.4346C27.313 50.6708 27.0299 51.0775 26.9423 51.5262" fill="black"/>
</g>
<path d="M45.8151 36.7823C45.8319 36.7935 45.6885 37.0233 45.4862 37.4089C45.2834 37.7939 45.0311 38.3409 44.8258 38.9722C44.6223 39.6041 44.5061 40.1958 44.4449 40.6272C44.3831 41.0586 44.3647 41.3292 44.3445 41.3285C44.33 41.3282 44.3166 41.0554 44.3564 40.6165C44.3955 40.178 44.4991 39.5741 44.7057 38.9326C44.9137 38.2919 45.1832 37.7424 45.4083 37.3647C45.633 36.9865 45.803 36.7737 45.8151 36.7823Z" fill="#263238"/>
<g opacity="0.3">
<path d="M44.2107 42.9782C44.0802 43.1133 44.0447 44.2501 44.0447 44.2501C44.0469 45.6226 44.1318 46.2251 44.134 47.5976C44.135 48.1644 44.1348 48.7395 43.9843 49.2856C43.9045 49.5754 43.784 49.8516 43.6636 50.1269C43.5115 50.4753 43.3575 50.8267 43.1355 51.1346C42.9497 51.3923 42.7202 51.6143 42.4958 51.8388C41.4184 52.9173 40.4351 54.0909 39.5608 55.3414L39.0273 56.1278L44.3203 51.1334L44.5811 50.4726L44.5942 50.3953L44.2107 42.9782Z" fill="black"/>
</g>
<path d="M46.0332 35.7126C46.0332 35.7126 46.8667 36.0278 47.3017 37.8986C47.8039 40.059 48.4618 43.6526 48.5627 45.0119C48.6476 46.1565 49.7653 50.3397 48.9011 52.1809C48.037 54.0223 43.8585 59.7095 42.2093 59.8918L41.5216 59.7163L40.7989 59.8408L38.7715 57.4945L38.9486 56.823C38.9486 56.823 38.7193 56.4489 38.9588 56.1154C39.1982 55.7818 44.3682 50.896 44.3682 50.896C44.3682 50.896 44.171 50.8706 44.1288 50.5336C44.0557 49.9534 44.5582 49.9744 44.5582 49.9744L44.2246 44.8626L46.0332 35.7126Z" fill="#4AC49E"/>
<path d="M46.3477 51.503C46.3254 51.5345 45.9443 51.2598 45.4031 51.0882C44.8635 50.9109 44.3946 50.9113 44.3946 50.8725C44.389 50.8413 44.8766 50.7823 45.4416 50.9672C46.0079 51.1473 46.3703 51.4808 46.3477 51.503Z" fill="#263238"/>
<path d="M47.39 50.7376C47.3662 50.7715 46.8607 50.2782 46.0504 50.0671C45.2433 49.8426 44.5606 50.0159 44.5567 49.9746C44.5528 49.9607 44.7156 49.8975 44.9944 49.8621C45.2719 49.826 45.6668 49.8329 46.0831 49.9444C46.4989 50.0571 46.8444 50.2496 47.0669 50.4204C47.2905 50.5907 47.4002 50.7276 47.39 50.7376Z" fill="#263238"/>
<path d="M44.394 50.8726C44.3891 50.8848 44.3078 50.8777 44.2016 50.7974C44.1494 50.7569 44.0958 50.6905 44.0667 50.6027C44.0376 50.5148 44.0388 50.4114 44.0635 50.3133C44.081 50.2477 44.1048 50.1908 44.1378 50.1352L44.132 50.1476C44.2074 49.9717 44.3668 49.9388 44.4544 49.9305C44.55 49.9244 44.6026 49.9524 44.5997 49.9654C44.5973 49.981 44.5453 49.982 44.4682 50.0071C44.3952 50.03 44.2795 50.0861 44.2474 50.1867L44.2462 50.1903L44.2416 50.1991C44.2205 50.2394 44.1989 50.2931 44.1853 50.3455C44.1395 50.5095 44.1878 50.651 44.2625 50.7323C44.3365 50.8147 44.4034 50.8538 44.394 50.8726Z" fill="#263238"/>
<path d="M44.1578 42.7286C44.1665 42.7278 44.182 42.8288 44.2031 43.0118C44.2245 43.1948 44.2487 43.4603 44.2745 43.7885C44.3264 44.4449 44.3768 45.353 44.4205 46.3561C44.4625 47.3446 44.5003 48.2383 44.5294 48.9245C44.5418 49.2321 44.5522 49.4922 44.5605 49.7028C44.5663 49.8868 44.5653 49.9888 44.5566 49.9895C44.5479 49.9902 44.5323 49.8895 44.5112 49.7062C44.4899 49.5232 44.4656 49.258 44.4399 48.9296C44.388 48.2732 44.3375 47.3648 44.2939 46.3615C44.2519 45.3733 44.214 44.4798 44.1849 43.7936C44.1726 43.4859 44.1621 43.2258 44.1539 43.015C44.1483 42.8313 44.1493 42.7291 44.1578 42.7286Z" fill="#263238"/>
<path d="M44.4769 50.8374C44.4796 50.8403 44.4354 50.8838 44.3488 50.9638C44.2537 51.0502 44.1261 51.1661 43.9658 51.3117C43.6242 51.6233 43.1431 52.062 42.5473 52.6057C41.9493 53.1598 41.239 53.8298 40.4571 54.5962C40.0665 54.9793 39.6562 55.3868 39.2361 55.8145C39.1347 55.9216 39.0369 56.0341 38.9765 56.1632C38.9124 56.292 38.9035 56.4323 38.9323 56.5807C38.9564 56.7298 39.0124 56.8823 39.0075 57.0601C39.0027 57.2248 38.9399 57.433 38.7477 57.5133L38.7717 57.4135C39.1075 57.7995 39.4597 58.2043 39.8181 58.6164C40.1674 59.0187 40.5109 59.4143 40.8452 59.7993L40.7877 59.7788C41.0323 59.7371 41.2732 59.6958 41.5107 59.6551L41.5196 59.6536L41.5274 59.6546C41.8442 59.6936 42.1072 59.8408 42.3816 59.7932C42.6545 59.7598 42.9017 59.6163 43.1193 59.4528C43.5516 59.1139 43.9277 58.7279 44.2775 58.3663C44.972 57.6326 45.5414 56.9352 46.0094 56.3501C46.4766 55.7643 46.8415 55.2882 47.094 54.9625C47.2158 54.8066 47.3124 54.6828 47.3852 54.5896C47.4524 54.5055 47.4888 54.4625 47.4919 54.4647C47.4951 54.4669 47.4645 54.5142 47.4029 54.6028C47.3342 54.6992 47.243 54.8273 47.1285 54.9883C46.8866 55.3224 46.5317 55.806 46.072 56.3996C45.6118 56.9923 45.0485 57.6975 44.3554 58.4404C44.0043 58.8082 43.6341 59.1944 43.1897 59.5467C42.9653 59.7166 42.7033 59.874 42.3964 59.9132C42.0822 59.9647 41.7909 59.8064 41.5153 59.7776L41.5318 59.7771C41.2945 59.8183 41.0536 59.86 40.8091 59.9023L40.7746 59.9084L40.7516 59.8818C40.4168 59.497 40.073 59.1017 39.7234 58.6998C39.3654 58.2875 39.0136 57.8824 38.6781 57.4962L38.6191 57.4283L38.7021 57.3964C38.822 57.3503 38.8802 57.1992 38.8841 57.0555C38.8901 56.9125 38.8385 56.7605 38.8118 56.6017C38.7795 56.4438 38.7909 56.2584 38.8673 56.1105C38.9386 55.9604 39.0454 55.8411 39.1502 55.7308C39.575 55.3016 39.9862 54.8976 40.3804 54.5162C41.1684 53.7539 41.8857 53.0903 42.4917 52.5439C43.0982 51.9979 43.5926 51.5692 43.9364 51.2776C44.1028 51.1387 44.235 51.0285 44.3338 50.946C44.4252 50.8718 44.4742 50.8345 44.4769 50.8374Z" fill="#263238"/>
<path d="M44.3548 47.9079C44.3543 47.9431 41.0475 47.9236 36.9699 47.8648C32.8908 47.8057 29.5855 47.7296 29.5859 47.6944C29.5864 47.6593 32.8925 47.6788 36.9716 47.7379C41.0494 47.7964 44.3553 47.8728 44.3548 47.9079Z" fill="#263238"/>
<path d="M40.5605 49.9205C40.5649 49.9212 40.5627 49.9536 40.5547 50.0146C40.5452 50.0754 40.5365 50.1664 40.5101 50.2806C40.4652 50.5104 40.3761 50.8396 40.2192 51.2293C39.9128 52.0049 39.2689 53.0271 38.2236 53.7844C37.1775 54.5411 36.0091 54.8307 35.1804 54.8768C34.7632 54.9029 34.4247 54.8832 34.1935 54.8529C34.0776 54.8417 33.989 54.8212 33.9286 54.8109C33.8685 54.799 33.8374 54.7909 33.8379 54.7865C33.8401 54.7587 34.3508 54.861 35.1732 54.7873C35.988 54.719 37.1268 54.421 38.1496 53.6812C39.1712 52.9409 39.8136 51.9496 40.1367 51.1939C40.4678 50.4333 40.5336 49.9136 40.5605 49.9205Z" fill="#263238"/>
<path d="M33.481 60.1175C33.4594 60.1441 33.3214 60.066 33.1967 59.9198C33.0715 59.7739 33.0153 59.6253 33.0448 59.6077C33.0752 59.5892 33.1749 59.7005 33.2925 59.8371C33.4095 59.9742 33.5038 60.0899 33.481 60.1175Z" fill="#263238"/>
<path d="M34.4068 59.3908C34.3787 59.4118 34.2743 59.3179 34.1737 59.1812C34.073 59.0446 34.014 58.917 34.0422 58.896C34.0701 58.875 34.1746 58.969 34.2753 59.1056C34.3758 59.2422 34.4347 59.3698 34.4068 59.3908Z" fill="#263238"/>
<path d="M39.7734 57.4342C39.7894 57.4659 39.6506 57.5681 39.4774 57.685C39.3037 57.8014 39.157 57.8914 39.1337 57.8644C39.1111 57.8382 39.2261 57.7006 39.4071 57.5794C39.5878 57.4576 39.7581 57.4032 39.7734 57.4342Z" fill="#263238"/>
<path d="M40.4619 58.1147C40.4908 58.1325 40.4068 58.3182 40.2312 58.4914C40.0563 58.6657 39.8705 58.7472 39.8532 58.7176C39.8343 58.6871 39.9791 58.5637 40.1427 58.4009C40.3069 58.2389 40.4318 58.095 40.4619 58.1147Z" fill="#263238"/>
<path d="M41.1216 58.9263C41.1468 58.9497 41.0398 59.1054 40.8605 59.2481C40.6817 59.3916 40.5068 59.4609 40.4898 59.4311C40.4719 59.4004 40.6111 59.2857 40.7819 59.1485C40.9534 59.0124 41.0959 58.9019 41.1216 58.9263Z" fill="#263238"/>
<path d="M31.7095 32.9578C31.7454 32.9437 32.0351 33.6769 32.53 34.507C33.0208 35.3398 33.5242 35.9446 33.4948 35.9695C33.4824 35.9803 33.3405 35.8424 33.1367 35.596C32.9329 35.35 32.6712 34.9923 32.4215 34.5719C32.1726 34.1512 31.9841 33.7496 31.866 33.4522C31.7476 33.1547 31.6945 32.9637 31.7095 32.9578Z" fill="#263238"/>
<path d="M46.3466 65.7348C46.3466 65.7392 46.276 65.7429 46.1416 65.7458C45.9958 65.7475 45.8 65.7497 45.5538 65.7524C45.031 65.7573 44.2959 65.7641 43.3927 65.7724C41.5681 65.7946 39.048 65.8634 36.2645 65.9488C33.4799 66.0342 30.9579 66.0889 29.1321 66.0882C28.2192 66.0884 27.4805 66.0818 26.9701 66.0679C26.7238 66.0606 26.528 66.055 26.3825 66.0506C26.2481 66.0452 26.1777 66.0403 26.1777 66.0359C26.1777 66.0315 26.2483 66.0279 26.3827 66.025C26.5285 66.0232 26.7243 66.021 26.9703 66.0184C27.4931 66.0135 28.2282 66.0067 29.1314 65.9981C30.9559 65.9759 33.4763 65.9071 36.2608 65.8217C39.0444 65.7363 41.5662 65.6816 43.392 65.6824C44.3049 65.6821 45.0436 65.6887 45.554 65.7026C45.8002 65.71 45.996 65.7156 46.1416 65.72C46.276 65.7256 46.3466 65.7304 46.3466 65.7348Z" fill="#263238"/>
<path d="M41.3198 33.3577C41.2909 33.3829 40.9942 33.0418 40.5289 32.7548C40.0665 32.4627 39.6311 32.3468 39.6408 32.3095C39.6437 32.2778 40.1114 32.3417 40.5956 32.647C41.0823 32.9481 41.3467 33.3411 41.3198 33.3577Z" fill="#4AC49E"/>
<path d="M39.7481 60.3202C39.8391 60.4969 40.0603 60.5647 40.258 60.5571C40.4558 60.5496 40.6477 60.4854 40.8451 60.4744C41.0426 60.4634 41.2646 60.5225 41.3648 60.694C41.4441 60.8299 41.4257 61.0083 41.3483 61.1454C41.2709 61.2826 41.143 61.3841 41.0077 61.4638C40.3611 61.8457 39.4747 61.7598 38.9121 61.2611" fill="#B78876"/>
<path d="M35.3008 63.3509C35.8714 63.9239 36.5014 64.437 37.1768 64.8796C37.326 64.9774 37.4956 65.0758 37.6714 65.0467C37.8473 65.0177 37.9873 64.7876 37.8694 64.6532C38.0499 64.7988 38.3282 64.8054 38.5154 64.6685C38.693 64.539 38.7741 64.2911 38.7122 64.08C38.7081 64.0659 38.7202 64.0544 38.7338 64.0595C38.907 64.1259 39.1108 64.1208 39.2673 64.0217C39.4337 63.9163 39.5293 63.6965 39.4662 63.5088C39.6459 63.754 40.0775 63.6569 40.2161 63.3861C40.3546 63.1152 40.258 62.7744 40.0746 62.5321C39.8912 62.2898 39.6338 62.1173 39.4026 61.9209C39.1712 61.7244 38.9533 61.4826 38.8983 61.1833" fill="#B78876"/>
<path d="M37.9472 64.7539C37.9341 64.784 37.6078 64.6478 37.3075 64.3406C37.0047 64.0354 36.8727 63.7062 36.9026 63.6933C36.9353 63.6755 37.11 63.9624 37.3972 64.2513C37.6815 64.5429 37.9651 64.7212 37.9472 64.7539Z" fill="#AA6550"/>
<path d="M38.8522 64.1888C38.8343 64.2174 38.5533 64.0646 38.2768 63.7875C37.9988 63.5115 37.8445 63.2304 37.8724 63.2124C37.9022 63.1916 38.0973 63.4315 38.3656 63.6972C38.6322 63.9646 38.8726 64.1586 38.8522 64.1888Z" fill="#AA6550"/>
<path d="M39.6437 63.6264C39.6262 63.6552 39.3569 63.5149 39.0917 63.2546C38.8254 62.9954 38.6786 62.7285 38.7065 62.7102C38.7361 62.6892 38.9234 62.9144 39.1798 63.1636C39.4345 63.4139 39.6635 63.5959 39.6437 63.6264Z" fill="#AA6550"/>
<path d="M33.7089 57.837C33.7089 57.837 33.6366 57.5259 34.4331 57.6265C35.2295 57.7272 35.5856 57.8046 36.4806 57.7582C37.3755 57.7116 38.8272 57.4552 38.8272 57.4552L41.163 59.5226C41.163 59.5226 38.7739 61.6337 38.0592 62.0097C37.3445 62.3857 35.8891 63.3236 35.0609 63.2787C34.4314 63.2446 34.3748 62.9296 34.3748 62.9296C34.3748 62.9296 33.7603 62.5045 33.8518 62.2979C33.8518 62.2979 33.1221 62.2576 33.2589 61.6947C33.2589 61.6947 32.7388 61.5981 32.6543 61.2994C32.5699 61.001 32.9627 60.6499 33.1138 60.4993C33.3567 60.2573 35.4825 58.6881 35.4918 58.644C35.4918 58.644 33.6754 58.4629 33.7089 57.837Z" fill="#B78876"/>
<path d="M35.2154 60.1192C35.2368 60.147 34.8088 60.5147 34.2601 60.9402C33.7111 61.366 33.2487 61.6883 33.2273 61.6605C33.206 61.6327 33.6337 61.2652 34.1829 60.8395C34.7317 60.4139 35.1941 60.0913 35.2154 60.1192Z" fill="#AA6550"/>
<path d="M36.3406 60.3383C36.353 60.3485 36.253 60.5 36.0614 60.7214C35.8702 60.9427 35.583 61.2299 35.2317 61.5066C34.8799 61.7825 34.5333 61.9936 34.2734 62.1266C34.0134 62.26 33.8431 62.321 33.8363 62.3064C33.8188 62.2712 34.4634 61.9528 35.1538 61.4063C35.8477 60.8648 36.311 60.3127 36.3406 60.3383Z" fill="#AA6550"/>
<path d="M37.3456 61.0622C37.3575 61.071 37.2503 61.2464 37.029 61.4929C36.8087 61.7391 36.4647 62.048 36.0322 62.3105C35.5987 62.5721 35.1664 62.7329 34.8469 62.8134C34.5269 62.8947 34.3226 62.9076 34.3204 62.893C34.3095 62.8525 35.1205 62.7207 35.9672 62.2015C36.8194 61.6927 37.3153 61.0337 37.3456 61.0622Z" fill="#AA6550"/>
<path d="M40.1976 60.3903C40.2034 60.3968 40.1406 60.4617 40.022 60.5737C39.9026 60.6845 39.726 60.8409 39.4999 61.0246C39.0491 61.3933 38.3978 61.8706 37.6312 62.3215C37.2481 62.5472 36.8738 62.7461 36.5276 62.9142C36.1831 63.0852 35.8549 63.217 35.5647 63.2751C35.2748 63.3368 35.0286 63.3187 34.8692 63.2758C34.7088 63.2324 34.6322 63.1799 34.6348 63.175C34.6375 63.1492 34.9834 63.3358 35.5453 63.1875C35.8224 63.1204 36.137 62.9849 36.4762 62.8093C36.8172 62.6365 37.187 62.4359 37.5674 62.212C38.3281 61.7645 38.9827 61.3026 39.4451 60.9539C39.9087 60.6057 40.1847 60.3751 40.1976 60.3903Z" fill="#AA6550"/>
<path d="M35.9191 19.3672C33.5858 19.1506 31.5271 20.8986 31.3527 23.249C31.2074 25.2049 31.0708 27.3212 31.0684 28.3882C31.0638 30.6784 33.3357 31.0673 33.3357 31.0673C33.3357 31.0673 33.2704 31.7449 33.1955 32.5857C33.0446 34.2791 34.3141 35.7643 36.0014 35.8665C37.6556 35.9668 39.077 34.6985 39.1753 33.0347L39.7192 23.8161C39.8528 21.5452 38.1714 19.5766 35.9191 19.3672Z" fill="#B78876"/>
<path d="M33.3324 31.0344C33.3324 31.0344 34.7696 31.1729 36.3125 30.2289C36.3125 30.2289 35.5498 31.884 33.2812 31.6448L33.3324 31.0344Z" fill="#AA6550"/>
<path d="M39.498 24.5998C39.5371 24.5835 41.0688 24.1572 40.9968 25.7217C40.9247 27.2863 39.3777 26.8907 39.377 26.8459C39.3765 26.801 39.498 24.5998 39.498 24.5998Z" fill="#B78876"/>
<path d="M39.8806 26.2754C39.8876 26.2707 39.9068 26.2956 39.9517 26.319C39.9953 26.3417 40.0715 26.3596 40.154 26.3327C40.3211 26.2798 40.4716 26.0238 40.4922 25.742C40.5028 25.5997 40.4793 25.4629 40.4344 25.3482C40.3922 25.2315 40.3224 25.1481 40.2401 25.1295C40.1586 25.1066 40.0977 25.1537 40.0766 25.1966C40.0538 25.2393 40.0623 25.2711 40.0538 25.2735C40.0492 25.2772 40.0215 25.2457 40.0371 25.1818C40.0451 25.151 40.065 25.1149 40.1028 25.0866C40.1416 25.0578 40.1972 25.0449 40.2544 25.0537C40.374 25.0676 40.4769 25.1837 40.5264 25.3096C40.5824 25.4363 40.612 25.5905 40.6004 25.75C40.5759 26.0648 40.4019 26.3525 40.1739 26.4074C40.0633 26.431 39.9733 26.3935 39.9279 26.3544C39.8816 26.3134 39.875 26.2781 39.8806 26.2754Z" fill="#AA6550"/>
<path d="M32.2387 24.4969C32.2302 24.6694 32.3684 24.8189 32.5475 24.8314C32.726 24.8436 32.8784 24.714 32.8869 24.5415C32.8954 24.369 32.7571 24.2192 32.5785 24.2067C32.3993 24.1943 32.2471 24.3243 32.2387 24.4969Z" fill="#263238"/>
<path d="M31.9288 24.0733C31.9684 24.1165 32.2175 23.9366 32.5673 23.9427C32.9169 23.9437 33.1709 24.1284 33.2095 24.086C33.2284 24.0672 33.1884 23.9896 33.0778 23.9061C32.9688 23.8229 32.7823 23.7409 32.5644 23.7387C32.3466 23.7368 32.162 23.8149 32.0555 23.8959C31.9468 23.9774 31.9092 24.0537 31.9288 24.0733Z" fill="#263238"/>
<path d="M35.7426 24.5935C35.7341 24.766 35.8723 24.9156 36.0514 24.9278C36.2302 24.94 36.382 24.8104 36.3908 24.6379C36.3993 24.4654 36.261 24.3156 36.0824 24.3031C35.9032 24.2909 35.7513 24.421 35.7426 24.5935Z" fill="#263238"/>
<path d="M35.3662 24.1887C35.406 24.2319 35.6551 24.052 36.0047 24.0581C36.3543 24.0591 36.6085 24.2438 36.6471 24.2014C36.666 24.1826 36.6265 24.105 36.5154 24.0215C36.4065 23.9383 36.2199 23.8563 36.002 23.8541C35.7842 23.8522 35.5998 23.9303 35.4931 24.0113C35.3846 24.0928 35.3468 24.1694 35.3662 24.1887Z" fill="#263238"/>
<path d="M34.0596 26.7797C34.0615 26.7597 33.8446 26.7187 33.4929 26.6685C33.4038 26.658 33.3194 26.6387 33.3054 26.5772C33.2852 26.512 33.324 26.4157 33.3689 26.3117C33.456 26.0955 33.5472 25.8689 33.6428 25.6315C34.0237 24.6625 34.3005 23.8654 34.2617 23.8503C34.2226 23.8351 33.8825 24.6084 33.5016 25.577C33.4099 25.8159 33.3221 26.0438 33.2386 26.2617C33.2035 26.3632 33.1435 26.4781 33.1872 26.6136C33.2103 26.6811 33.2753 26.7307 33.3323 26.747C33.3893 26.7653 33.4395 26.767 33.4837 26.7704C33.8379 26.7951 34.0579 26.7997 34.0596 26.7797Z" fill="#263238"/>
<path d="M34.9637 22.9145C35.0044 23.0077 35.3499 22.9394 35.7628 22.9618C36.1762 22.976 36.5144 23.0748 36.5631 22.9855C36.5847 22.9431 36.5211 22.8569 36.3817 22.7732C36.2431 22.6898 36.0262 22.6159 35.7786 22.6046C35.5309 22.5939 35.3084 22.6481 35.1631 22.7188C35.0166 22.7901 34.9457 22.8701 34.9637 22.9145Z" fill="#263238"/>
<path d="M31.7977 22.7769C31.8581 22.8577 32.1002 22.7781 32.3901 22.7786C32.68 22.7686 32.9246 22.8401 32.9823 22.7571C33.0075 22.7169 32.9702 22.6364 32.8639 22.559C32.7593 22.4821 32.5835 22.418 32.3843 22.4211C32.1851 22.4246 32.0114 22.4946 31.9095 22.5749C31.8057 22.6556 31.771 22.7374 31.7977 22.7769Z" fill="#263238"/>
<path d="M39.6769 24.5303C39.6936 24.7701 39.6815 25.0468 39.6276 25.2811C39.5735 25.5153 39.4374 25.7425 39.222 25.8469C38.8283 26.0375 38.3419 25.7296 38.1725 25.3245C38.0032 24.9195 38.0583 24.4598 38.1046 24.0228C38.1679 23.4267 38.2092 22.8208 38.1034 22.2308C37.9979 21.6408 37.7315 21.0618 37.2703 20.6822C36.8091 20.3025 36.1357 20.1581 35.5971 20.4147C35.2648 20.5731 35.0122 20.8615 34.7014 21.0591C34.422 21.237 34.0833 21.34 33.7573 21.2836C33.4312 21.2275 32.9897 20.9969 33.045 20.669C33.174 19.9048 32.6466 20.5458 32.6813 20.416C32.7393 20.1993 33.1772 19.8279 33.3589 19.6937C33.6944 19.4458 34.0496 19.327 34.405 19.2643C35.3909 19.0903 36.4518 19.216 37.3766 19.6017C38.3014 19.9873 39.1133 20.7063 39.4915 21.6384C39.9287 22.7164 39.8605 23.3696 39.713 24.5308" fill="#263238"/>
<path d="M34.7983 27.8206C34.802 27.8906 34.5113 27.9634 34.1491 27.9831C33.7867 28.0026 33.4902 27.9617 33.4864 27.8916C33.4827 27.8216 33.7731 27.7489 34.1356 27.7294C34.4978 27.7096 34.7944 27.7506 34.7983 27.8206Z" fill="#263238"/>
<path d="M39.6722 24.6679C39.6679 24.6838 39.484 24.6508 39.1958 24.5632C38.9073 24.4766 38.5179 24.3309 38.0949 24.1582C37.6985 23.9979 37.3387 23.8522 37.0119 23.7202C36.7339 23.6116 36.5597 23.5484 36.5646 23.5304C36.5687 23.5145 36.7528 23.5475 37.041 23.6351C37.3295 23.7217 37.7188 23.8673 38.1422 24.0403C38.5383 24.2006 38.8981 24.3461 39.2249 24.4783C39.5031 24.5867 39.6773 24.6498 39.6722 24.6679Z" fill="#263238"/>
<path d="M33.1992 23.3159C33.4059 23.3406 33.5752 23.4989 33.6062 23.7058C33.6679 24.116 33.5992 24.5464 33.4066 24.9139C33.1577 25.3882 32.7055 25.7503 32.19 25.8877C31.8942 25.9665 31.5604 25.9684 31.302 25.804C30.9398 25.5736 30.8283 25.0976 30.7965 24.6677C30.7734 24.3541 30.7817 24.0179 30.9532 23.7549C31.1723 23.4191 31.6019 23.2898 32.0005 23.2681C32.3993 23.2461 33.1992 23.3159 33.1992 23.3159Z" fill="#263238"/>
<path d="M35.0287 23.3725C34.819 23.3913 34.6432 23.5465 34.6058 23.7549C34.5316 24.1677 34.5886 24.605 34.7727 24.9819C35.0107 25.469 35.4573 25.8481 35.9745 26.0021C36.2712 26.0904 36.6084 26.1021 36.8748 25.9433C37.2477 25.721 37.3743 25.243 37.4187 24.8094C37.4512 24.493 37.4524 24.1531 37.2867 23.882C37.075 23.5362 36.6444 23.3928 36.2419 23.3591C35.8394 23.3254 35.0287 23.3725 35.0287 23.3725Z" fill="#263238"/>
<path d="M35.3976 23.4374C35.3969 23.4726 34.7991 23.4889 34.0628 23.4743C33.326 23.4594 32.7297 23.4191 32.7305 23.384C32.7312 23.3489 33.3287 23.3325 34.0655 23.3471C34.8018 23.3618 35.3983 23.4023 35.3976 23.4374Z" fill="#263238"/>
<path d="M39.5824 33.8213C39.5802 33.8213 39.578 33.8086 39.5756 33.7833C39.5734 33.7579 39.5732 33.7198 39.58 33.6703C39.5914 33.571 39.6406 33.4295 39.7301 33.2655C39.8189 33.1008 39.9356 32.9078 40.0038 32.656C40.0775 32.4066 40.1088 32.1087 40.1069 31.7795C40.1071 31.4482 40.0654 31.0919 40.0414 30.6942C40.0402 30.5935 40.0516 30.4778 40.1166 30.3785C40.176 30.2838 40.2954 30.1952 40.4351 30.2309C40.4992 30.2489 40.5547 30.2899 40.5901 30.3502C40.6277 30.41 40.6277 30.499 40.5855 30.561C40.4865 30.6881 40.333 30.6759 40.2187 30.6325C39.9882 30.5229 39.8604 30.2482 39.9291 29.9939C39.962 29.8697 40.037 29.7553 40.145 29.678C40.1998 29.6394 40.2631 29.6101 40.3356 29.6021C40.4058 29.5935 40.4931 29.6126 40.5496 29.675C40.6023 29.7329 40.6348 29.8185 40.6008 29.9081C40.5615 29.9998 40.4671 30.0286 40.3987 30.032C40.2544 30.0393 40.1175 29.9727 40.0239 29.8702C39.93 29.7687 39.8728 29.6228 39.8946 29.4757C39.9162 29.3293 40.0091 29.2039 40.1306 29.1295C40.2325 29.066 40.3577 29.0372 40.4814 29.0663C40.5436 29.0826 40.5994 29.1141 40.6454 29.1626C40.6911 29.2085 40.7243 29.2907 40.7012 29.3661C40.6813 29.4425 40.6129 29.4933 40.554 29.5116C40.4931 29.5318 40.4327 29.5345 40.3735 29.5269C40.258 29.5086 40.1561 29.4593 40.0685 29.3905C39.8963 29.2563 39.7859 29.0121 39.8701 28.7905C39.9485 28.5844 40.1663 28.4277 40.3936 28.4787C40.5028 28.5051 40.6071 28.5839 40.6263 28.7154C40.634 28.7803 40.6047 28.8481 40.5598 28.8884C40.5152 28.9296 40.4603 28.9521 40.4028 28.9577C40.2866 28.9652 40.1918 28.9099 40.1183 28.8518C40.0436 28.792 39.9802 28.7181 39.9383 28.631C39.848 28.4592 39.8873 28.2208 40.0506 28.109C40.2175 27.9897 40.4715 28.0864 40.5038 28.2881L40.5091 28.3221L40.48 28.3379C40.2495 28.4636 39.9742 28.3338 39.8912 28.1254C39.8471 28.019 39.8667 27.899 39.9174 27.8101C39.9688 27.7204 40.047 27.652 40.1362 27.6159C40.2248 27.5779 40.3276 27.5781 40.4113 27.6142C40.4962 27.6452 40.569 27.7423 40.5462 27.838C40.538 27.8846 40.503 27.9287 40.4582 27.9441C40.4135 27.9602 40.3686 27.9531 40.332 27.9373C40.2544 27.9051 40.217 27.8275 40.2025 27.7655C40.1595 27.5112 40.1809 27.3178 40.1957 27.1857C40.2139 27.0545 40.2342 26.9874 40.2386 26.9884C40.258 26.9871 40.1741 27.2714 40.2568 27.7509C40.2726 27.806 40.3027 27.8594 40.356 27.8792C40.4092 27.9024 40.4708 27.8821 40.4785 27.8245C40.504 27.6989 40.3019 27.6213 40.1668 27.6903C40.0254 27.7482 39.9058 27.9309 39.9749 28.0915C40.0353 28.2491 40.2694 28.3487 40.4283 28.2523L40.4045 28.302C40.3912 28.1883 40.2114 28.1142 40.1103 28.1966C39.9999 28.275 39.9647 28.4482 40.0375 28.5822C40.103 28.712 40.2551 28.8484 40.3917 28.842C40.4584 28.8362 40.5183 28.782 40.5086 28.7276C40.5035 28.6715 40.4366 28.6085 40.3655 28.5953C40.2158 28.558 40.0409 28.6763 39.9839 28.8337C39.9232 28.9896 40.003 29.1824 40.1452 29.2924C40.2158 29.3481 40.3029 29.3888 40.3895 29.402C40.4727 29.4147 40.5702 29.3852 40.5795 29.3315C40.5996 29.282 40.5295 29.2075 40.4494 29.189C40.3689 29.17 40.2728 29.1885 40.1962 29.2375C40.1028 29.2942 40.0334 29.3913 40.0188 29.494C40.003 29.5965 40.0433 29.7058 40.1159 29.7843C40.1877 29.8636 40.2915 29.9112 40.3905 29.9066C40.4953 29.9039 40.5164 29.83 40.4589 29.7599C40.4104 29.7026 40.2937 29.7194 40.2151 29.7785C40.1321 29.8373 40.0715 29.9278 40.0453 30.0254C39.9865 30.2192 40.0974 30.4458 40.2633 30.5244C40.3434 30.5603 40.4565 30.551 40.4904 30.4973C40.5314 30.4444 40.4802 30.359 40.405 30.3382C40.3369 30.3172 40.2515 30.366 40.2068 30.4378C40.1588 30.5085 40.1459 30.6008 40.1462 30.6932C40.1649 31.0758 40.2022 31.4453 40.1962 31.7795C40.1923 32.1145 40.1539 32.4208 40.0712 32.6765C39.9941 32.9349 39.8662 33.132 39.7731 33.2897C39.6782 33.448 39.6241 33.5803 39.6049 33.6749C39.5853 33.7691 39.5882 33.8211 39.5824 33.8213Z" fill="#E0E0E0"/>
<path d="M40.4757 26.3334C40.4602 26.2161 40.434 26.0975 40.3723 25.9965C40.3107 25.8955 40.2083 25.814 40.0912 25.803C39.9604 25.7908 39.8267 25.8762 39.7823 26.0004C39.7392 26.1209 39.7947 26.27 39.8971 26.3466C39.8995 26.3486 39.9012 26.3503 39.9036 26.352C39.9044 26.3525 39.9051 26.3535 39.9061 26.3539L39.9051 26.353C39.9143 26.3596 39.9243 26.3659 39.932 26.3708C39.9725 26.3966 40.0298 26.3998 40.0705 26.4252C40.154 26.4772 40.1809 26.5877 40.177 26.6863C40.1732 26.7848 40.1465 26.8824 40.1538 26.981C40.1591 27.0525 40.1996 27.136 40.2709 27.1374C40.3328 27.1386 40.3765 27.0776 40.4022 27.0208C40.4985 26.8085 40.5065 26.565 40.4757 26.3334Z" fill="#E0E0E0"/>
<path d="M33.2997 31.436C33.2997 31.436 32.8119 32.1553 32.7719 32.6228C32.7454 32.9322 32.9504 34.1358 33.0921 34.9144C33.1734 35.3615 33.3471 35.7855 33.6018 36.161L33.9176 36.6264C34.3742 37.2988 34.7548 38.0203 35.0525 38.7775C35.6677 40.3422 36.7017 42.9769 36.7378 43.1031C36.7895 43.2832 37.1973 44.0232 37.1973 44.0232L37.7441 37.4464L39.3938 34.1583C39.5374 33.8721 39.6177 33.558 39.6294 33.2379L39.6677 32.1824C39.6818 31.7956 39.5449 31.4189 39.2863 31.1324L39.2034 32.0826L36.4676 34.5824L33.2942 32.4347L33.2997 31.436Z" fill="white"/>
<path d="M36.3297 34.6031C36.3442 34.626 36.0233 34.7192 35.7579 35.146C35.4823 35.5579 35.2741 36.223 35.0936 36.9655C35.0752 37.0389 35.0572 37.1117 35.0402 37.1797L35.0157 37.2778L34.9391 37.2132C34.3867 36.7476 33.9624 36.2657 33.6557 35.9236C33.3518 35.5786 33.1703 35.3646 33.1822 35.3532C33.1943 35.3414 33.3981 35.5352 33.7186 35.8646C34.0412 36.1908 34.4752 36.6603 35.0191 37.1153L34.918 37.1487C34.935 37.0804 34.9529 37.0077 34.9711 36.9343C35.1521 36.1891 35.3777 35.5113 35.6843 35.0945C35.834 34.8866 35.9944 34.7449 36.1232 34.68C36.2489 34.6114 36.3289 34.5985 36.3297 34.6031Z" fill="#263238"/>
<path d="M38.2814 36.3755C38.302 36.3897 38.0507 36.7976 37.6654 37.3825L37.5648 37.5352L37.5619 37.3496C37.5577 37.0824 37.4837 36.7779 37.393 36.4551C37.2482 35.8912 37.1138 35.3827 36.9066 35.0701C36.7072 34.7539 36.5005 34.6251 36.5165 34.6058C36.5209 34.5992 36.5745 34.6258 36.6625 34.6887C36.7496 34.7527 36.8671 34.8605 36.9808 35.0198C37.2191 35.337 37.3712 35.8616 37.5153 36.4221C37.605 36.7435 37.6798 37.0616 37.6754 37.3508L37.572 37.3178C37.974 36.7449 38.2608 36.3614 38.2814 36.3755Z" fill="#263238"/>
<path d="M37.0306 43.5742C36.9957 43.5764 36.8399 41.5825 36.6822 39.1213C36.5248 36.659 36.4253 34.6619 36.46 34.6597C36.495 34.6575 36.6507 36.651 36.8084 39.1132C36.9661 41.5744 37.0655 43.5721 37.0306 43.5742Z" fill="#263238"/>
<path d="M30.9157 24.6706C30.8853 24.6855 30.7796 24.4173 30.8868 24.0979C30.9906 23.7773 31.2349 23.6258 31.2502 23.656C31.2745 23.6841 31.0959 23.8576 31.0066 24.1379C30.9115 24.4163 30.9516 24.6625 30.9157 24.6706Z" fill="#E0E0E0"/>
<path d="M34.9185 24.8085C34.8928 24.8299 34.7329 24.6225 34.7344 24.3141C34.7329 24.0057 34.8928 23.7983 34.9188 23.8198C34.951 23.8376 34.8581 24.045 34.8608 24.3141C34.8579 24.5832 34.9508 24.7906 34.9185 24.8085Z" fill="#E0E0E0"/>
</svg>
