<svg width="24" height="24" viewBox="0 0 24 24" fill="none" xmlns="http://www.w3.org/2000/svg">
<g id="Twitter">
<path id="Vector" d="M23.0306 7.28056L20.2274 10.0837C19.6612 16.6481 14.1252 21.7499 7.49992 21.7499C6.13867 21.7499 5.01649 21.5343 4.1643 21.1087C3.47711 20.7646 3.19586 20.3962 3.12555 20.2912C3.06285 20.1972 3.02222 20.0902 3.00667 19.9782C2.99113 19.8663 3.00109 19.7523 3.03579 19.6448C3.0705 19.5372 3.12906 19.4389 3.20711 19.3572C3.28515 19.2754 3.38066 19.2124 3.48649 19.1727C3.51086 19.1634 5.75899 18.2999 7.1868 16.6565C6.39497 16.0055 5.70375 15.241 5.13555 14.3877C3.97305 12.6618 2.6718 9.66369 3.07305 5.18337C3.08577 5.04101 3.1389 4.90525 3.22619 4.79207C3.31348 4.67889 3.4313 4.59301 3.56576 4.54454C3.70022 4.49608 3.84573 4.48704 3.98516 4.51851C4.12458 4.54997 4.25212 4.62061 4.35274 4.72212C4.38555 4.75494 7.47274 7.82525 11.2471 8.82087V8.24994C11.2457 7.65124 11.364 7.05831 11.5952 6.50606C11.8265 5.95381 12.1658 5.45341 12.5934 5.03431C13.0086 4.61968 13.5026 4.29241 14.0464 4.07182C14.5901 3.85123 15.1726 3.74178 15.7593 3.74994C16.5464 3.7577 17.3181 3.96899 17.9993 4.36325C18.6806 4.75752 19.2483 5.32135 19.6471 5.99994H22.4999C22.6483 5.99982 22.7935 6.04374 22.9169 6.12615C23.0404 6.20855 23.1366 6.32573 23.1934 6.46284C23.2502 6.59996 23.2651 6.75085 23.2361 6.89642C23.2071 7.04198 23.1356 7.17567 23.0306 7.28056Z" fill="white" fill-opacity="0.8"/>
</g>
</svg>
